<?xml version="1.0" encoding="utf-8"?>
<!-- Generator: Adobe Illustrator 15.0.0, SVG Export Plug-In  -->
<!DOCTYPE svg PUBLIC "-//W3C//DTD SVG 1.1//EN" "http://www.w3.org/Graphics/SVG/1.1/DTD/svg11.dtd" [
	<!ENTITY ns_flows "http://ns.adobe.com/Flows/1.0/">
]>
<svg version="1.1"
	 xmlns="http://www.w3.org/2000/svg" xmlns:xlink="http://www.w3.org/1999/xlink" xmlns:a="http://ns.adobe.com/AdobeSVGViewerExtensions/3.0/"
	 x="0px" y="0px" width="800px" height="800px" viewBox="-4.492 -6.241 800 800" enable-background="new -4.492 -6.241 800 800"
	 xml:space="preserve">
<defs>
</defs>
<path fill="#191D63" d="M757.69,392.375c0.802,96.204-38.105,191.763-105.688,260.996c-33.682,34.649-74.03,63.161-118.693,82.617
	c-44.561,19.66-93.168,30.534-142.31,31.604c-16.577,0.373-33.2-0.318-49.727-2.132C157.077,741.1,14.559,583.075,14.559,392.375
	c0-189.53,140.706-346.757,323.198-372.661c0.322-0.053,0.637-0.107,1.016-0.107c17.318-2.025,34.802-2.824,52.227-2.396
	c49.142,1.063,97.749,11.935,142.31,31.605c44.609,19.451,84.956,47.965,118.641,82.613
	C719.532,200.607,758.492,296.117,757.69,392.375z"/>
<path fill="#265EAC" d="M760.678,239.195c-20.256-48.34-50.741-92.098-87.998-128.556c-37.31-36.402-82.075-64.917-130.262-83.89
	C494.187,7.777,442.273-1.072,390.999,0.104c-18.709,0.424-37.309,2.183-55.698,5.275C145.99,32.453,0,195.706,0,392.375
	c0,198.16,148.175,362.371,339.564,387.58c0.538,0.106,1.121,0.211,1.708,0.266c16.467,2.505,33.095,3.945,49.727,4.319
	c51.274,1.119,103.133-7.727,151.37-26.65c48.235-18.977,92.897-47.484,130.259-83.891c37.26-36.462,67.639-80.216,88.05-128.502
	c20.306-48.287,30.805-100.732,31.019-153.122C791.592,339.931,780.983,287.537,760.678,239.195z M652.002,653.371
	c-33.682,34.649-74.03,63.161-118.693,82.617c-44.561,19.66-93.168,30.534-142.31,31.604c-16.577,0.373-33.2-0.318-49.727-2.132
	C157.077,741.1,14.559,583.075,14.559,392.375c0-189.53,140.706-346.757,323.198-372.661c0.322-0.053,0.637-0.107,1.016-0.107
	c17.318-2.025,34.802-2.824,52.227-2.396c49.142,1.063,97.749,11.935,142.31,31.605c44.609,19.451,84.956,47.965,118.641,82.613
	c67.583,69.178,106.543,164.688,105.741,260.946C758.492,488.579,719.585,584.139,652.002,653.371z"/>
<path fill="#265EAC" d="M202.772,362.39c5.562,0,12.122,1.37,19.679,4.112c5.855,2.077,9.412,3.114,10.674,3.114
	c1.111,0,2.108-0.296,3.002-0.889l2.446-1.667c0.519-0.371,1.111-0.558,1.775-0.558c1.781,0,2.67,1.745,2.67,5.224
	c0,0.894-0.036,2.117-0.11,3.672c-0.223,3.333-0.336,5.262-0.336,5.779c0,2.004,0.41,5.768,1.229,11.282
	c0.812,5.523,1.477,8.954,1.995,10.287c0.292,0.885,0.447,1.551,0.447,2.002c0,1.629-0.965,2.445-2.887,2.445
	c-1.933,0-3.376-1.741-4.337-5.207c-2.593-9.384-7.27-17.183-14.035-23.391c-6.77-6.21-13.962-9.311-21.579-9.311
	c-4.737,0-8.746,1.483-12.04,4.444c-3.293,2.965-4.933,6.554-4.933,10.768c0,7.335,3.828,16.682,11.489,28.045
	c7.662,11.361,18.339,23.524,32.029,36.483c20.13,19.027,31.937,28.43,35.417,28.208c2.201-0.146,4.397-2.739,6.596-7.763
	c2.196-5.024,3.298-9.903,3.298-14.638c0-7.02-1.348-12.043-4.059-15.082c-2.71-3.029-7.43-4.805-14.176-5.32
	c-5.557-0.533-8.341-1.771-8.341-3.734c0-1.737,1.006-2.603,3.015-2.603c1.186,0,2.487,0.038,3.9,0.109
	c7.798,0.519,14.076,0.779,18.831,0.779c5.644,0,9.362-0.15,11.143-0.442l4.464-0.782c0.812-0.146,1.585-0.214,2.333-0.214
	c2.306,0,3.461,1.016,3.461,3.051c0,1.361-0.856,2.346-2.56,2.947c-2.669,0.889-4.319,1.832-4.951,2.823
	c-0.624,1.004-0.943,3.096-0.943,6.272c0,6.511-2.004,14.31-6.004,23.404c-3.927,8.945-5.858,14.092-5.781,15.413
	c0.224,4.327,4.796,9.092,13.734,14.304c8.929,5.221,16.988,7.825,24.181,7.825c3.335,0,6.149-0.295,8.445-0.891l6.34-1.778
	c0.666-0.144,1.258-0.227,1.777-0.227c1.849,0,2.743,0.701,2.67,2.1c-0.229,2.5-4.396,5.225-12.509,8.163
	c-8.118,2.947-15.512,4.413-22.181,4.413c-10.819,0-22.863-3.183-36.129-9.556c-2.155-1.038-3.745-1.558-4.783-1.558
	c-1.189,0-2.779,0.442-4.783,1.329l-10.002,4.455c-11.417,4.961-24.426,7.443-39.021,7.443c-19.124,0-34.639-4.945-46.528-14.842
	c-11.899-9.894-17.848-22.813-17.848-38.747c0-9.339,2.415-17.857,7.225-25.573c4.82-7.698,11.27-13.412,19.352-17.119
	c3.401-1.552,5.11-3.147,5.11-4.773c0-0.82-0.337-1.969-1.002-3.454c-2-4.741-2.998-10.262-2.998-16.561
	c0-9.71,3.445-17.802,10.341-24.288C183.872,365.634,192.473,362.39,202.772,362.39z M172.867,423.646
	c-1.796-0.146-4.925,1.666-9.402,5.457c-4.997,4.072-7.349,9.015-7.053,14.804c0.448,9.867,5.345,20.893,14.692,33.06
	c6.901,9.062,15.118,16.125,24.658,21.209c9.539,5.088,19.352,7.631,29.446,7.631c6.003,0,11.206-0.848,15.579-2.538
	c4.376-1.681,6.569-3.657,6.569-5.911c0-1.782-1.927-3.97-5.785-6.565c-12.819-8.592-25.164-18.654-37.018-30.183
	c-11.857-11.522-20.198-21.512-25.017-29.957C176.938,426.13,174.717,423.797,172.867,423.646z"/>
<path fill="#65BD60" d="M141.251,214.098v20.763h32.944v10.717h-32.944v26.125H128.58v-68.229h49.807v10.623H141.251z"/>
<path fill="#65BD60" d="M237.744,271.703l-13.939-19.984c-0.588,0.067-1.462,0.099-2.632,0.099h-15.403v19.885h-12.667v-68.229
	h28.07c5.912,0,11.064,0.973,15.451,2.92c4.383,1.955,7.744,4.747,10.086,8.386c2.341,3.636,3.507,7.958,3.507,12.959
	c0,5.138-1.249,9.558-3.75,13.257c-2.505,3.706-6.09,6.47-10.772,8.286l15.692,22.42H237.744z M233.162,217.706
	c-2.861-2.34-7.052-3.507-12.574-3.507h-14.819v27.191h14.819c5.522,0,9.713-1.182,12.574-3.555
	c2.86-2.374,4.286-5.738,4.286-10.094C237.447,223.391,236.021,220.042,233.162,217.706z"/>
<path fill="#65BD60" d="M317.954,261.078v10.625h-51.166v-68.229h49.808v10.623h-37.14v17.738h32.939v10.431h-32.939v18.812H317.954
	z"/>
<path fill="#65BD60" d="M340.421,270.437c-4.907-1.495-8.788-3.477-11.643-5.95l4.381-9.841c2.793,2.208,6.224,4.011,10.286,5.409
	c4.064,1.399,8.136,2.099,12.231,2.099c5.071,0,8.853-0.816,11.357-2.438c2.497-1.626,3.754-3.769,3.754-6.432
	c0-1.952-0.703-3.562-2.097-4.826c-1.402-1.271-3.17-2.257-5.314-2.973c-2.146-0.718-5.066-1.531-8.77-2.438
	c-5.203-1.236-9.406-2.472-12.623-3.705c-3.216-1.233-5.981-3.169-8.286-5.799c-2.306-2.633-3.463-6.188-3.463-10.674
	c0-3.769,1.03-7.194,3.071-10.281c2.049-3.086,5.134-5.542,9.26-7.357c4.128-1.823,9.179-2.736,15.155-2.736
	c4.16,0,8.255,0.522,12.281,1.563c4.033,1.042,7.508,2.537,10.432,4.48l-4,9.85c-2.988-1.754-6.103-3.086-9.356-3.995
	c-3.244-0.912-6.396-1.366-9.453-1.366c-5.007,0-8.723,0.844-11.161,2.535c-2.436,1.693-3.653,3.931-3.653,6.724
	c0,1.947,0.696,3.541,2.09,4.773c1.399,1.24,3.17,2.212,5.312,2.927c2.149,0.717,5.069,1.531,8.773,2.436
	c5.076,1.172,9.23,2.388,12.483,3.659c3.242,1.264,6.021,3.203,8.327,5.796c2.305,2.598,3.461,6.107,3.461,10.523
	c0,3.769-1.024,7.187-3.07,10.236c-2.05,3.052-5.146,5.494-9.311,7.312c-4.155,1.817-9.221,2.725-15.203,2.725
	C350.415,272.672,345.326,271.93,340.421,270.437z"/>
<path fill="#65BD60" d="M458.893,203.475v68.229h-12.67v-29.241h-35.286v29.241h-12.666v-68.229h12.666v28.17h35.286v-28.17H458.893
	z"/>
<path fill="#65BD60" d="M494.547,234.205v13.518h21.442v6.976h-21.442v17.005h-8.255v-44.408h32.421v6.91H494.547z"/>
<path fill="#65BD60" d="M557.346,271.703l-9.072-13.01c-0.38,0.048-0.949,0.071-1.709,0.071h-10.022v12.939h-8.249v-44.408h18.271
	c3.845,0,7.202,0.633,10.053,1.9c2.856,1.268,5.044,3.088,6.564,5.458c1.526,2.364,2.286,5.177,2.286,8.438
	c0,3.338-0.814,6.213-2.44,8.627c-1.632,2.41-3.968,4.209-7.011,5.393l10.214,14.592H557.346z M554.367,236.552
	c-1.863-1.52-4.587-2.28-8.186-2.28h-9.64v17.694h9.64c3.599,0,6.322-0.767,8.186-2.314c1.858-1.54,2.792-3.733,2.792-6.561
	C557.159,240.26,556.226,238.078,554.367,236.552z"/>
<path fill="#65BD60" d="M584.758,269.387c-3.642-1.968-6.493-4.698-8.57-8.184c-2.068-3.492-3.102-7.392-3.102-11.706
	c0-4.316,1.033-8.213,3.102-11.705c2.077-3.489,4.929-6.215,8.57-8.182c3.639-1.967,7.715-2.953,12.243-2.953
	c4.522,0,8.605,0.985,12.245,2.953c3.636,1.967,6.486,4.683,8.563,8.152c2.071,3.461,3.107,7.377,3.107,11.734
	c0,4.355-1.036,8.273-3.107,11.737c-2.077,3.465-4.928,6.184-8.563,8.152c-3.64,1.967-7.723,2.95-12.245,2.95
	C592.473,272.336,588.396,271.354,584.758,269.387z M604.991,263.104c2.373-1.334,4.23-3.193,5.585-5.583
	c1.353-2.387,2.032-5.063,2.032-8.024c0-2.962-0.68-5.638-2.032-8.026c-1.354-2.39-3.212-4.253-5.585-5.584
	c-2.364-1.328-5.028-1.993-7.99-1.993c-2.966,0-5.625,0.665-7.994,1.993c-2.37,1.331-4.229,3.194-5.585,5.584
	c-1.35,2.388-2.028,5.063-2.028,8.026c0,2.961,0.679,5.637,2.028,8.024c1.356,2.39,3.215,4.249,5.585,5.583
	c2.369,1.33,5.028,1.998,7.994,1.998C599.963,265.102,602.627,264.434,604.991,263.104z"/>
<path fill="#65BD60" d="M672.051,271.703l-0.065-29.442l-14.589,24.364h-3.682l-14.591-23.977v29.055h-7.867v-44.408h6.788
	l17.638,29.431l17.318-29.431h6.789l0.063,44.408H672.051z"/>
<path fill="#65BD60" d="M182.874,313.119h-14.718v-6.983h37.683v6.983h-14.723v37.425h-8.241V313.119z"/>
<path fill="#65BD60" d="M253.1,306.136v44.408h-8.25V331.51h-22.959v19.034h-8.25v-44.408h8.25v18.333h22.959v-18.333H253.1z"/>
<path fill="#65BD60" d="M299.924,343.629v6.915h-33.309v-44.408h32.416v6.913h-24.171v11.55h21.447v6.788h-21.447v12.242H299.924z"
	/>
<path fill="#65BD60" d="M393.259,305.815l-29.733,68.225h-12.473l-29.828-68.225h13.749l22.708,52.63l22.9-52.63H393.259z"/>
<path fill="#65BD60" d="M402.907,305.815h12.664v68.225h-12.664V305.815z"/>
<path fill="#65BD60" d="M497.062,305.815v68.225H486.63l-37.623-46.2v46.2h-12.569v-68.225h10.423l37.629,46.198v-46.198H497.062z"
	/>
<path fill="#65BD60" d="M568.985,363.417v10.624h-51.17v-68.225h49.809v10.623h-37.136v17.737h32.943v10.432h-32.943v18.81H568.985z
	"/>
<path fill="#65BD60" d="M357.613,411.073c4.382,1.954,7.744,4.747,10.085,8.387c2.342,3.64,3.507,7.958,3.507,12.96
	c0,4.938-1.165,9.247-3.507,12.92c-2.341,3.67-5.703,6.481-10.085,8.43c-4.383,1.946-9.54,2.92-15.452,2.92h-15.398v19.689h-12.672
	v-68.222h28.07C348.073,408.157,353.23,409.128,357.613,411.073z M354.15,442.459c2.86-2.335,4.291-5.685,4.291-10.039
	c0-4.35-1.431-7.699-4.291-10.035c-2.861-2.342-7.051-3.508-12.572-3.508h-14.815v27.091h14.815
	C347.099,445.968,351.29,444.801,354.15,442.459z"/>
<path fill="#65BD60" d="M386.316,408.157h12.668v68.222h-12.668V408.157z"/>
<path fill="#65BD60" d="M432.759,472.82c-5.554-3.019-9.91-7.193-13.062-12.521c-3.152-5.326-4.725-11.333-4.725-18.031
	c0-6.69,1.591-12.704,4.774-18.035c3.185-5.323,7.553-9.497,13.111-12.521c5.553-3.021,11.774-4.536,18.668-4.536
	c5.585,0,10.687,0.982,15.3,2.924c4.611,1.955,8.512,4.782,11.693,8.481l-8.185,7.704c-4.938-5.329-11.015-7.995-18.226-7.995
	c-4.684,0-8.87,1.021-12.573,3.071c-3.703,2.046-6.601,4.892-8.673,8.532c-2.087,3.639-3.126,7.765-3.126,12.375
	s1.039,8.737,3.126,12.378c2.072,3.64,4.97,6.481,8.673,8.532c3.703,2.044,7.89,3.06,12.573,3.06c7.211,0,13.288-2.688,18.226-8.084
	l8.185,7.798c-3.182,3.703-7.096,6.528-11.743,8.478c-4.646,1.95-9.766,2.924-15.351,2.924
	C444.538,477.353,438.314,475.841,432.759,472.82z"/>
<path fill="#65BD60" d="M516.631,447.822l-10.823,11.11v17.446H493.14v-68.222h12.668v34.986l33.723-34.986h14.236l-28.659,30.503
	l30.412,37.719h-14.818L516.631,447.822z"/>
<path fill="#65BD60" d="M617.796,465.756v10.623h-51.167v-68.222h49.805v10.623h-37.139v17.739h32.947v10.426h-32.947v18.811
	H617.796z"/>
<path fill="#65BD60" d="M634.367,408.157h29.825c7.275,0,13.743,1.409,19.396,4.236c5.655,2.825,10.041,6.824,13.156,11.99
	c3.126,5.166,4.684,11.129,4.684,17.884c0,6.756-1.558,12.718-4.684,17.886c-3.115,5.165-7.501,9.159-13.156,11.984
	c-5.652,2.828-12.12,4.241-19.396,4.241h-29.825V408.157z M663.61,465.659c5,0,9.407-0.955,13.205-2.874
	c3.804-1.913,6.724-4.646,8.772-8.19c2.047-3.544,3.072-7.649,3.072-12.327c0-4.682-1.025-8.786-3.072-12.331
	c-2.049-3.539-4.969-6.269-8.772-8.185c-3.798-1.913-8.205-2.875-13.205-2.875h-16.573v46.782H663.61z"/>
<path fill="#65BD60" d="M273.275,559.65c1.44,1.887,2.159,4.227,2.159,7.016c0,3.849-1.485,6.814-4.44,8.909
	c-2.961,2.096-7.275,3.146-12.942,3.146h-22.076v-44.407h20.81c5.242,0,9.278,1.021,12.112,3.075
	c2.838,2.055,4.255,4.88,4.255,8.468c0,2.201-0.51,4.146-1.527,5.842c-1.011,1.688-2.413,3.001-4.181,3.925
	C269.896,556.436,271.841,557.773,273.275,559.65z M244.222,540.781v12.247h11.67c2.879,0,5.089-0.521,6.633-1.554
	c1.539-1.04,2.314-2.553,2.314-4.542c0-2.028-0.776-3.563-2.314-4.593c-1.544-1.037-3.754-1.559-6.633-1.559H244.222z
	 M267.126,565.842c0-4.272-3.199-6.405-9.58-6.405h-13.324v12.814h13.324C263.927,572.251,267.126,570.118,267.126,565.842z"/>
<path fill="#65BD60" d="M304.043,563.049v15.672h-8.247v-15.544l-17.447-28.863h8.818l13.006,21.63l13.133-21.63h8.118
	L304.043,563.049z"/>
<path fill="#65BD60" d="M416.691,510.498v68.223h-12.668v-29.242h-35.287v29.242h-12.669v-68.223h12.669v28.162h35.287v-28.162
	H416.691z"/>
<path fill="#65BD60" d="M481.7,562.93h-34.109l-6.729,15.791h-13.061l30.702-68.223h12.474l30.804,68.223h-13.257L481.7,562.93z
	 M477.51,552.985l-12.865-29.823l-12.767,29.823H477.51z"/>
<path fill="#65BD60" d="M573.518,510.498v68.223h-10.432l-37.622-46.201v46.201h-12.573v-68.223h10.428l37.626,46.191v-46.191
	H573.518z"/>
<path fill="#65BD60" d="M594.277,510.498H624.1c7.28,0,13.743,1.403,19.397,4.232c5.653,2.829,10.044,6.82,13.159,11.995
	c3.121,5.159,4.681,11.123,4.681,17.883c0,6.752-1.56,12.718-4.681,17.885c-3.115,5.165-7.506,9.157-13.159,11.984
	c-5.654,2.829-12.117,4.243-19.397,4.243h-29.822V510.498z M623.518,567.996c5.002,0,9.407-0.956,13.205-2.871
	c3.804-1.917,6.725-4.646,8.775-8.189c2.044-3.545,3.064-7.653,3.064-12.327c0-4.682-1.021-8.783-3.064-12.332
	c-2.051-3.538-4.972-6.271-8.775-8.189c-3.798-1.913-8.203-2.873-13.205-2.873h-16.573v46.782H623.518z"/>
<path fill="#265EAC" d="M115.56,545.257c57.695,0,104.592,46.896,104.592,104.594c0,57.647-46.896,104.594-104.592,104.594
	c-57.65,0-104.592-46.946-104.592-104.594C10.967,592.153,57.91,545.257,115.56,545.257z"/>
<path fill="#191D63" d="M2.225,649.851c0,62.495,50.838,113.333,113.335,113.333c62.495,0,113.376-50.838,113.376-113.333
	c0-62.502-50.881-113.333-113.376-113.333C53.063,536.518,2.225,587.349,2.225,649.851z M220.151,649.851
	c0,57.647-46.896,104.594-104.592,104.594c-57.65,0-104.592-46.946-104.592-104.594c0-57.697,46.942-104.594,104.592-104.594
	C173.255,545.257,220.151,592.153,220.151,649.851z"/>
<polygon fill-rule="evenodd" clip-rule="evenodd" fill="#FFFFFF" points="183.67,631.219 183.67,625.146 116.958,625.146 
	116.958,631.219 183.67,631.219 "/>
<polygon fill-rule="evenodd" clip-rule="evenodd" fill="#FFFFFF" points="183.67,642.342 183.67,636.269 116.958,636.269 
	116.958,642.342 183.67,642.342 "/>
<polygon fill-rule="evenodd" clip-rule="evenodd" fill="#FFFFFF" points="183.67,653.443 183.67,647.414 116.958,647.414 
	116.958,653.443 183.67,653.443 "/>
<polygon fill-rule="evenodd" clip-rule="evenodd" fill="#FFFFFF" points="183.67,620.097 183.67,614.023 116.958,614.023 
	116.958,620.097 183.67,620.097 "/>
<polygon fill-rule="evenodd" clip-rule="evenodd" fill="#FFFFFF" points="183.67,664.587 183.67,658.515 48.271,658.515 
	48.271,664.587 183.67,664.587 "/>
<polygon fill-rule="evenodd" clip-rule="evenodd" fill="#FFFFFF" points="183.67,675.709 183.67,669.637 48.271,669.637 
	48.271,675.709 183.67,675.709 "/>
<polygon fill-rule="evenodd" clip-rule="evenodd" fill="#FFFFFF" points="183.67,686.832 183.67,680.76 48.271,680.76 
	48.271,686.832 183.67,686.832 "/>
<polygon fill-rule="evenodd" clip-rule="evenodd" fill="#FFFFFF" points="107.878,621.456 108.509,623.493 106.803,622.233 
	105.045,623.493 105.731,621.456 103.975,620.196 106.117,620.196 106.803,618.155 107.44,620.196 109.635,620.196 "/>
<polygon fill-rule="evenodd" clip-rule="evenodd" fill="#FFFFFF" points="107.878,630.197 108.558,632.234 106.803,630.974 
	105.045,632.234 105.731,630.197 103.975,628.937 106.117,628.937 106.803,626.896 107.44,628.937 109.635,628.937 "/>
<polygon fill-rule="evenodd" clip-rule="evenodd" fill="#FFFFFF" points="107.878,638.938 108.558,640.975 106.803,639.715 
	105.045,640.975 105.731,638.938 103.975,637.679 106.117,637.679 106.803,635.637 107.44,637.679 109.635,637.679 "/>
<polygon fill-rule="evenodd" clip-rule="evenodd" fill="#FFFFFF" points="107.878,647.701 108.509,649.742 106.803,648.476 
	105.045,649.742 105.731,647.701 103.975,646.441 106.117,646.441 106.803,644.352 107.44,646.441 109.635,646.441 "/>
<polygon fill-rule="evenodd" clip-rule="evenodd" fill="#FFFFFF" points="113.635,634.565 114.312,636.606 112.602,635.347 
	110.802,636.606 111.483,634.565 109.731,633.306 111.925,633.306 112.602,631.269 113.24,633.306 115.435,633.306 "/>
<polygon fill-rule="evenodd" clip-rule="evenodd" fill="#FFFFFF" points="113.635,643.307 114.312,645.35 112.602,644.083 
	110.802,645.35 111.483,643.307 109.731,642.046 111.925,642.046 112.602,640.012 113.24,642.046 115.435,642.046 "/>
<polygon fill-rule="evenodd" clip-rule="evenodd" fill="#FFFFFF" points="113.682,652.048 114.363,654.09 112.555,652.775 
	110.848,654.09 111.531,652.048 109.731,650.788 111.919,650.788 112.555,648.753 113.24,650.788 115.435,650.788 "/>
<polygon fill-rule="evenodd" clip-rule="evenodd" fill="#FFFFFF" points="113.652,617.109 114.338,619.152 112.583,617.884 
	110.819,619.152 111.505,617.109 109.748,615.851 111.899,615.851 112.583,613.761 113.262,615.851 115.409,615.851 "/>
<polygon fill-rule="evenodd" clip-rule="evenodd" fill="#FFFFFF" points="113.652,625.824 114.338,627.866 112.583,626.605 
	110.819,627.866 111.505,625.824 109.748,624.565 111.899,624.565 112.583,622.527 113.262,624.565 115.409,624.565 "/>
<polygon fill-rule="evenodd" clip-rule="evenodd" fill="#FFFFFF" points="95.584,621.456 96.222,623.493 94.513,622.233 
	92.761,623.493 93.437,621.456 91.681,620.196 93.83,620.196 94.513,618.155 95.145,620.196 97.342,620.196 "/>
<polygon fill-rule="evenodd" clip-rule="evenodd" fill="#FFFFFF" points="95.584,630.197 96.27,632.234 94.513,630.974 
	92.761,632.234 93.437,630.197 91.681,628.937 93.83,628.937 94.513,626.896 95.145,628.937 97.342,628.937 "/>
<polygon fill-rule="evenodd" clip-rule="evenodd" fill="#FFFFFF" points="95.584,638.938 96.27,640.975 94.513,639.715 
	92.761,640.975 93.437,638.938 91.681,637.679 93.83,637.679 94.513,635.637 95.145,637.679 97.342,637.679 "/>
<polygon fill-rule="evenodd" clip-rule="evenodd" fill="#FFFFFF" points="95.584,647.701 96.222,649.742 94.513,648.476 
	92.761,649.742 93.437,647.701 91.681,646.441 93.83,646.441 94.513,644.352 95.145,646.441 97.342,646.441 "/>
<polygon fill-rule="evenodd" clip-rule="evenodd" fill="#FFFFFF" points="101.339,634.565 102.022,636.606 100.315,635.347 
	98.506,636.606 99.189,634.565 97.437,633.306 99.632,633.306 100.315,631.269 100.946,633.306 103.142,633.306 "/>
<polygon fill-rule="evenodd" clip-rule="evenodd" fill="#FFFFFF" points="101.339,643.307 102.022,645.35 100.315,644.083 
	98.506,645.35 99.189,643.307 97.437,642.046 99.632,642.046 100.315,640.012 100.946,642.046 103.142,642.046 "/>
<polygon fill-rule="evenodd" clip-rule="evenodd" fill="#FFFFFF" points="101.387,652.048 102.07,654.09 100.27,652.775 
	98.561,654.09 99.237,652.048 97.437,650.788 99.632,650.788 100.27,648.753 100.946,650.788 103.142,650.788 "/>
<polygon fill-rule="evenodd" clip-rule="evenodd" fill="#FFFFFF" points="101.367,617.109 102.044,619.152 100.287,617.884 
	98.535,619.152 99.218,617.109 97.463,615.851 99.604,615.851 100.287,613.761 100.972,615.851 103.122,615.851 "/>
<polygon fill-rule="evenodd" clip-rule="evenodd" fill="#FFFFFF" points="101.367,625.824 102.044,627.866 100.287,626.605 
	98.535,627.866 99.218,625.824 97.463,624.565 99.604,624.565 100.287,622.527 100.972,624.565 103.122,624.565 "/>
<polygon fill-rule="evenodd" clip-rule="evenodd" fill="#FFFFFF" points="83.297,621.456 83.929,623.493 82.22,622.233 
	80.465,623.493 81.148,621.456 79.394,620.196 81.534,620.196 82.22,618.155 82.857,620.196 85.052,620.196 "/>
<polygon fill-rule="evenodd" clip-rule="evenodd" fill="#FFFFFF" points="83.297,630.197 83.977,632.234 82.22,630.974 
	80.465,632.234 81.148,630.197 79.394,628.937 81.534,628.937 82.22,626.896 82.857,628.937 85.052,628.937 "/>
<polygon fill-rule="evenodd" clip-rule="evenodd" fill="#FFFFFF" points="83.297,638.938 83.977,640.975 82.22,639.715 
	80.465,640.975 81.148,638.938 79.394,637.679 81.534,637.679 82.22,635.637 82.857,637.679 85.052,637.679 "/>
<polygon fill-rule="evenodd" clip-rule="evenodd" fill="#FFFFFF" points="83.297,647.701 83.929,649.742 82.22,648.476 
	80.465,649.742 81.148,647.701 79.394,646.441 81.534,646.441 82.22,644.352 82.857,646.441 85.052,646.441 "/>
<polygon fill-rule="evenodd" clip-rule="evenodd" fill="#FFFFFF" points="89.052,634.565 89.729,636.606 88.021,635.347 
	86.219,636.606 86.905,634.565 85.148,633.306 87.343,633.306 88.021,631.269 88.657,633.306 90.854,633.306 "/>
<polygon fill-rule="evenodd" clip-rule="evenodd" fill="#FFFFFF" points="89.052,643.307 89.729,645.35 88.021,644.083 
	86.219,645.35 86.905,643.307 85.148,642.046 87.343,642.046 88.021,640.012 88.657,642.046 90.854,642.046 "/>
<polygon fill-rule="evenodd" clip-rule="evenodd" fill="#FFFFFF" points="89.099,652.048 89.785,654.09 87.974,652.775 
	86.267,654.09 86.952,652.048 85.148,650.788 87.338,650.788 87.974,648.753 88.657,650.788 90.854,650.788 "/>
<polygon fill-rule="evenodd" clip-rule="evenodd" fill="#FFFFFF" points="89.073,617.109 89.757,619.152 88.002,617.884 
	86.241,619.152 86.924,617.109 85.169,615.851 87.316,615.851 88.002,613.761 88.679,615.851 90.826,615.851 "/>
<polygon fill-rule="evenodd" clip-rule="evenodd" fill="#FFFFFF" points="89.073,625.824 89.757,627.866 88.002,626.605 
	86.241,627.866 86.924,625.824 85.169,624.565 87.316,624.565 88.002,622.527 88.679,624.565 90.826,624.565 "/>
<polygon fill-rule="evenodd" clip-rule="evenodd" fill="#FFFFFF" points="71.004,621.456 71.64,623.493 69.933,622.233 
	68.178,623.493 68.854,621.456 67.1,620.196 69.249,620.196 69.933,618.155 70.563,620.196 72.759,620.196 "/>
<polygon fill-rule="evenodd" clip-rule="evenodd" fill="#FFFFFF" points="71.004,630.197 71.687,632.234 69.933,630.974 
	68.178,632.234 68.854,630.197 67.1,628.937 69.249,628.937 69.933,626.896 70.563,628.937 72.759,628.937 "/>
<polygon fill-rule="evenodd" clip-rule="evenodd" fill="#FFFFFF" points="71.004,638.938 71.687,640.975 69.933,639.715 
	68.178,640.975 68.854,638.938 67.1,637.679 69.249,637.679 69.933,635.637 70.563,637.679 72.759,637.679 "/>
<polygon fill-rule="evenodd" clip-rule="evenodd" fill="#FFFFFF" points="71.004,647.701 71.64,649.742 69.933,648.476 
	68.178,649.742 68.854,647.701 67.1,646.441 69.249,646.441 69.933,644.352 70.563,646.441 72.759,646.441 "/>
<polygon fill-rule="evenodd" clip-rule="evenodd" fill="#FFFFFF" points="76.758,634.565 77.443,636.606 75.734,635.347 
	73.925,636.606 74.608,634.565 72.854,633.306 75.049,633.306 75.734,631.269 76.363,633.306 78.559,633.306 "/>
<polygon fill-rule="evenodd" clip-rule="evenodd" fill="#FFFFFF" points="76.758,643.307 77.443,645.35 75.734,644.083 
	73.925,645.35 74.608,643.307 72.854,642.046 75.049,642.046 75.734,640.012 76.363,642.046 78.559,642.046 "/>
<polygon fill-rule="evenodd" clip-rule="evenodd" fill="#FFFFFF" points="76.806,652.048 77.489,654.09 75.687,652.775 
	73.978,654.09 74.657,652.048 72.854,650.788 75.049,650.788 75.687,648.753 76.363,650.788 78.559,650.788 "/>
<polygon fill-rule="evenodd" clip-rule="evenodd" fill="#FFFFFF" points="76.784,617.109 77.463,619.152 75.708,617.884 
	73.952,619.152 74.637,617.109 72.88,615.851 75.023,615.851 75.708,613.761 76.392,615.851 78.541,615.851 "/>
<polygon fill-rule="evenodd" clip-rule="evenodd" fill="#FFFFFF" points="76.784,625.824 77.463,627.866 75.708,626.605 
	73.952,627.866 74.637,625.824 72.88,624.565 75.023,624.565 75.708,622.527 76.392,624.565 78.541,624.565 "/>
<polygon fill-rule="evenodd" clip-rule="evenodd" fill="#FFFFFF" points="58.717,621.456 59.346,623.493 57.639,622.233 
	55.884,623.493 56.569,621.456 54.813,620.196 56.956,620.196 57.639,618.155 58.274,620.196 60.471,620.196 "/>
<polygon fill-rule="evenodd" clip-rule="evenodd" fill="#FFFFFF" points="58.717,630.197 59.393,632.234 57.639,630.974 
	55.884,632.234 56.569,630.197 54.813,628.937 56.956,628.937 57.639,626.896 58.274,628.937 60.471,628.937 "/>
<polygon fill-rule="evenodd" clip-rule="evenodd" fill="#FFFFFF" points="58.717,638.938 59.393,640.975 57.639,639.715 
	55.884,640.975 56.569,638.938 54.813,637.679 56.956,637.679 57.639,635.637 58.274,637.679 60.471,637.679 "/>
<polygon fill-rule="evenodd" clip-rule="evenodd" fill="#FFFFFF" points="58.717,647.701 59.346,649.742 57.639,648.476 
	55.884,649.742 56.569,647.701 54.813,646.441 56.956,646.441 57.639,644.352 58.274,646.441 60.471,646.441 "/>
<polygon fill-rule="evenodd" clip-rule="evenodd" fill="#FFFFFF" points="64.469,634.565 65.147,636.606 63.441,635.347 
	61.636,636.606 62.322,634.565 60.564,633.306 62.762,633.306 63.441,631.269 64.078,633.306 66.273,633.306 "/>
<polygon fill-rule="evenodd" clip-rule="evenodd" fill="#FFFFFF" points="64.469,643.307 65.147,645.35 63.441,644.083 
	61.636,645.35 62.322,643.307 60.564,642.046 62.762,642.046 63.441,640.012 64.078,642.046 66.273,642.046 "/>
<polygon fill-rule="evenodd" clip-rule="evenodd" fill="#FFFFFF" points="64.517,652.048 65.202,654.09 63.393,652.775 
	61.684,654.09 62.369,652.048 60.564,650.788 62.755,650.788 63.393,648.753 64.078,650.788 66.273,650.788 "/>
<polygon fill-rule="evenodd" clip-rule="evenodd" fill="#FFFFFF" points="64.49,617.109 65.176,619.152 63.419,617.884 
	61.658,619.152 62.343,617.109 60.586,615.851 62.733,615.851 63.419,613.761 64.096,615.851 66.248,615.851 "/>
<polygon fill-rule="evenodd" clip-rule="evenodd" fill="#FFFFFF" points="64.49,625.824 65.176,627.866 63.419,626.605 
	61.658,627.866 62.343,625.824 60.586,624.565 62.733,624.565 63.419,622.527 64.096,624.565 66.248,624.565 "/>
<polygon fill-rule="evenodd" clip-rule="evenodd" fill="#FFFFFF" points="52.175,634.565 52.86,636.606 51.151,635.347 
	49.343,636.606 50.028,634.565 48.271,633.306 50.468,633.306 51.151,631.269 51.782,633.306 53.979,633.306 "/>
<polygon fill-rule="evenodd" clip-rule="evenodd" fill="#FFFFFF" points="52.175,643.307 52.86,645.35 51.151,644.083 
	49.343,645.35 50.028,643.307 48.271,642.046 50.468,642.046 51.151,640.012 51.782,642.046 53.979,642.046 "/>
<polygon fill-rule="evenodd" clip-rule="evenodd" fill="#FFFFFF" points="52.223,652.048 52.908,654.09 51.104,652.775 
	49.399,654.09 50.076,652.048 48.271,650.788 50.468,650.788 51.104,648.753 51.782,650.788 53.979,650.788 "/>
<polygon fill-rule="evenodd" clip-rule="evenodd" fill="#FFFFFF" points="52.204,617.109 52.882,619.152 51.125,617.884 
	49.369,619.152 50.054,617.109 48.299,615.851 50.44,615.851 51.125,613.761 51.811,615.851 53.958,615.851 "/>
<polygon fill-rule="evenodd" clip-rule="evenodd" fill="#FFFFFF" points="52.204,625.824 52.882,627.866 51.125,626.605 
	49.369,627.866 50.054,625.824 48.299,624.565 50.44,624.565 51.125,622.527 51.811,624.565 53.958,624.565 "/>
</svg>
