<?xml version="1.0" encoding="utf-8"?>
<!-- Generator: Adobe Illustrator 15.0.0, SVG Export Plug-In  -->
<!DOCTYPE svg PUBLIC "-//W3C//DTD SVG 1.1//EN" "http://www.w3.org/Graphics/SVG/1.1/DTD/svg11.dtd" [
	<!ENTITY ns_flows "http://ns.adobe.com/Flows/1.0/">
]>
<svg version="1.1"
	 xmlns="http://www.w3.org/2000/svg" xmlns:xlink="http://www.w3.org/1999/xlink" xmlns:a="http://ns.adobe.com/AdobeSVGViewerExtensions/3.0/"
	 x="0px" y="0px" width="612px" height="119px" viewBox="-5.576 -3.86 612 119" enable-background="new -5.576 -3.86 612 119"
	 xml:space="preserve">
<defs>
</defs>
<g>
	<defs>
		<path id="SVGID_1_" d="M54.407,107.124c-28.784,0-52.116-23.346-52.116-52.139c0-28.797,23.332-52.144,52.116-52.144
			c28.784,0,52.119,23.347,52.119,52.144C106.525,83.778,83.19,107.124,54.407,107.124"/>
	</defs>
	<clipPath id="SVGID_3_">
		<use xlink:href="#SVGID_1_"  overflow="visible"/>
	</clipPath>
	<g clip-path="url(#SVGID_3_)">
		<path d="M54.407,107.124c-6.825,0.102-13.689-1.157-20.045-3.735c-6.362-2.561-12.217-6.4-17.13-11.222
			C12.328,87.335,8.386,81.52,5.707,75.159c-2.687-6.362-4.086-13.251-4.126-20.185c-0.049-6.897,1.27-13.851,3.927-20.25
			c2.637-6.41,6.556-12.287,11.448-17.201c4.891-4.916,10.754-8.867,17.162-11.537c6.41-2.679,13.336-4.059,20.303-4.07
			C61.341,1.923,68.3,3.306,74.7,5.985c6.408,2.67,12.271,6.622,17.162,11.538c4.893,4.914,8.812,10.792,11.449,17.201
			c2.656,6.404,3.98,13.344,3.929,20.26c-0.04,6.916-1.441,13.819-4.128,20.177c-2.68,6.361-6.623,12.175-11.525,17.008
			c-4.914,4.821-10.771,8.66-17.132,11.221C68.096,105.968,61.231,107.227,54.407,107.124c6.824-0.099,13.61-1.522,19.857-4.188
			c6.249-2.665,11.946-6.574,16.678-11.409c4.748-4.819,8.546-10.562,11.086-16.814c2.55-6.249,3.829-12.996,3.784-19.729
			c-0.047-6.733-1.403-13.443-3.983-19.646c-2.582-6.204-6.404-11.883-11.161-16.623c-4.755-4.741-10.444-8.539-16.647-11.094
			c-6.205-2.565-12.895-3.866-19.624-3.854c-6.682-0.016-13.406,1.287-19.601,3.851c-6.203,2.555-11.893,6.353-16.648,11.094
			c-4.757,4.739-8.579,10.419-11.161,16.623c-2.58,6.208-3.94,12.903-3.986,19.655c-0.044,6.716,1.234,13.476,3.784,19.721
			c2.54,6.253,6.339,11.995,11.085,16.816c4.732,4.836,10.429,8.745,16.679,11.409C40.797,105.603,47.583,107.026,54.407,107.124z"
			/>
	</g>
	<g clip-path="url(#SVGID_3_)">
		
			<radialGradient id="SVGID_4_" cx="50.9673" cy="142.293" r="52.5535" gradientTransform="matrix(1 0 0 1.0005 3.1309 -87.4658)" gradientUnits="userSpaceOnUse">
			<stop  offset="0.3758" style="stop-color:#62A293"/>
			<stop  offset="1" style="stop-color:#277F6E"/>
		</radialGradient>
		<path fill="url(#SVGID_4_)" d="M106.653,54.9c0,29.041-23.532,52.577-52.555,52.577c-29.025,0-52.556-23.536-52.556-52.577
			c0-29.038,23.53-52.579,52.556-52.579C83.122,2.321,106.653,25.862,106.653,54.9z"/>
		
			<radialGradient id="SVGID_5_" cx="50.9673" cy="142.7979" r="52.5662" gradientTransform="matrix(1 0 0 1 3.1309 -87.8105)" gradientUnits="userSpaceOnUse">
			<stop  offset="0" style="stop-color:#749FD4"/>
			<stop  offset="1" style="stop-color:#4E74B9"/>
		</radialGradient>
		<ellipse fill="url(#SVGID_5_)" cx="54.098" cy="54.985" rx="52.555" ry="52.579"/>
		<path fill="#85C87F" d="M2.576,60.476c0,0,13.486-7.697,22.02-5.038c8.531,2.665,22.936,10.264,27.051,7.479
			c4.113-2.791,14.48-15.766,28.358-8.059c11.622,6.454,25.044,13.041,25.044,13.041S99.037,87.273,86.734,95.87
			c-12.302,8.599-28.175,16.278-52.754,7.097C9.402,93.784,1.689,64.925,2.576,60.476z"/>
		<g>
			<defs>
				<path id="SVGID_2_" d="M106.523,54.982c0,4.542-0.582,8.94-1.666,13.147c-4.262-2.434-17.768-10.05-24.852-13.271
					c-8.479-3.864-14.753-2.413-20.538,2.301c-2.928,2.391-5.596,4.542-8.346,6.313c-3.619,0.66-9.477-0.648-17.995-5.369
					c-12.667-7.034-28.306,1.12-30.549,2.371c-0.197-1.808-0.29-3.641-0.29-5.492c0-28.794,23.33-52.141,52.123-52.141
					C83.19,2.842,106.523,26.188,106.523,54.982z"/>
			</defs>
			<clipPath id="SVGID_6_">
				<use xlink:href="#SVGID_2_"  overflow="visible"/>
			</clipPath>
			<g clip-path="url(#SVGID_6_)">
				<g>
					
						<radialGradient id="SVGID_7_" cx="275.4385" cy="318.4688" r="54.1174" gradientTransform="matrix(-4.371139e-008 1 -1 -4.371139e-008 372.8805 -220.9056)" gradientUnits="userSpaceOnUse">
						<stop  offset="0" style="stop-color:#5E89C6"/>
						<stop  offset="1" style="stop-color:#265EAC"/>
					</radialGradient>
					<polygon fill="url(#SVGID_7_)" points="56.004,108.859 54.407,53.928 52.808,108.859 					"/>
					
						<radialGradient id="SVGID_8_" cx="275.4385" cy="318.4688" r="54.0707" gradientTransform="matrix(-4.371139e-008 1 -1 -4.371139e-008 372.8805 -220.9056)" gradientUnits="userSpaceOnUse">
						<stop  offset="0" style="stop-color:#5E89C6"/>
						<stop  offset="1" style="stop-color:#265EAC"/>
					</radialGradient>
					<polygon fill="url(#SVGID_8_)" points="56.004,0 54.407,54.938 52.808,0 					"/>
				</g>
				<g>
					
						<radialGradient id="SVGID_9_" cx="275.438" cy="318.4678" r="54.1178" gradientTransform="matrix(-4.371139e-008 1 -1 -4.371139e-008 372.8805 -220.9056)" gradientUnits="userSpaceOnUse">
						<stop  offset="0" style="stop-color:#5E89C6"/>
						<stop  offset="1" style="stop-color:#265EAC"/>
					</radialGradient>
					<polygon fill="url(#SVGID_9_)" points="94.01,91.788 54.049,54.077 91.747,94.053 					"/>
					
						<radialGradient id="SVGID_10_" cx="275.4375" cy="318.4678" r="54.1179" gradientTransform="matrix(-4.371139e-008 1 -1 -4.371139e-008 372.8805 -220.9056)" gradientUnits="userSpaceOnUse">
						<stop  offset="0" style="stop-color:#5E89C6"/>
						<stop  offset="1" style="stop-color:#265EAC"/>
					</radialGradient>
					<polygon fill="url(#SVGID_10_)" points="17.066,14.812 54.762,54.791 14.805,17.074 					"/>
				</g>
				<g>
					
						<radialGradient id="SVGID_11_" cx="275.438" cy="318.4668" r="54.1195" gradientTransform="matrix(-4.371139e-008 1 -1 -4.371139e-008 372.8805 -220.9056)" gradientUnits="userSpaceOnUse">
						<stop  offset="0" style="stop-color:#5E89C6"/>
						<stop  offset="1" style="stop-color:#265EAC"/>
					</radialGradient>
					<polygon fill="url(#SVGID_11_)" points="0,56.037 54.911,54.434 0,52.831 					"/>
					
						<radialGradient id="SVGID_12_" cx="275.438" cy="318.4678" r="54.1244" gradientTransform="matrix(-4.371139e-008 1 -1 -4.371139e-008 372.8805 -220.9056)" gradientUnits="userSpaceOnUse">
						<stop  offset="0" style="stop-color:#5E89C6"/>
						<stop  offset="1" style="stop-color:#265EAC"/>
					</radialGradient>
					<polygon fill="url(#SVGID_12_)" points="108.813,56.037 53.902,54.434 108.813,52.831 					"/>
				</g>
				<g>
					
						<radialGradient id="SVGID_13_" cx="275.438" cy="318.4678" r="54.1179" gradientTransform="matrix(-4.371139e-008 1 -1 -4.371139e-008 372.8805 -220.9056)" gradientUnits="userSpaceOnUse">
						<stop  offset="0" style="stop-color:#5E89C6"/>
						<stop  offset="1" style="stop-color:#265EAC"/>
					</radialGradient>
					<polygon fill="url(#SVGID_13_)" points="17.066,94.053 54.762,54.077 14.805,91.788 					"/>
					
						<radialGradient id="SVGID_14_" cx="275.4375" cy="318.4678" r="54.0654" gradientTransform="matrix(-4.371139e-008 1 -1 -4.371139e-008 372.8805 -220.9056)" gradientUnits="userSpaceOnUse">
						<stop  offset="0" style="stop-color:#5E89C6"/>
						<stop  offset="1" style="stop-color:#265EAC"/>
					</radialGradient>
					<polygon fill="url(#SVGID_14_)" points="94.01,17.076 54.049,54.791 91.747,14.812 					"/>
				</g>
				<g>
					<g>
						
							<radialGradient id="SVGID_15_" cx="275.4375" cy="318.4658" r="54.1192" gradientTransform="matrix(-4.371139e-008 1 -1 -4.371139e-008 372.8805 -220.9056)" gradientUnits="userSpaceOnUse">
							<stop  offset="0" style="stop-color:#5E89C6"/>
							<stop  offset="1" style="stop-color:#265EAC"/>
						</radialGradient>
						<polygon fill="url(#SVGID_15_)" points="76.705,104.108 54.216,53.966 73.75,105.331 						"/>
						
							<radialGradient id="SVGID_16_" cx="275.4385" cy="318.4648" r="54.1232" gradientTransform="matrix(-4.371139e-008 1 -1 -4.371139e-008 372.8805 -220.9056)" gradientUnits="userSpaceOnUse">
							<stop  offset="0" style="stop-color:#5E89C6"/>
							<stop  offset="1" style="stop-color:#265EAC"/>
						</radialGradient>
						<polygon fill="url(#SVGID_16_)" points="35.064,3.534 54.602,54.9 32.11,4.757 						"/>
					</g>
					<g>
						
							<radialGradient id="SVGID_17_" cx="275.4375" cy="318.4697" r="54.1209" gradientTransform="matrix(-4.371139e-008 1 -1 -4.371139e-008 372.8805 -220.9056)" gradientUnits="userSpaceOnUse">
							<stop  offset="0" style="stop-color:#5E89C6"/>
							<stop  offset="1" style="stop-color:#265EAC"/>
						</radialGradient>
						<polygon fill="url(#SVGID_17_)" points="105.287,73.784 53.938,54.24 104.061,76.743 						"/>
						
							<radialGradient id="SVGID_18_" cx="275.4385" cy="318.4688" r="54.1167" gradientTransform="matrix(-4.371139e-008 1 -1 -4.371139e-008 372.8805 -220.9056)" gradientUnits="userSpaceOnUse">
							<stop  offset="0" style="stop-color:#5E89C6"/>
							<stop  offset="1" style="stop-color:#265EAC"/>
						</radialGradient>
						<polygon fill="url(#SVGID_18_)" points="4.756,32.124 54.872,54.626 3.531,35.082 						"/>
					</g>
					<g>
						
							<radialGradient id="SVGID_19_" cx="275.4375" cy="318.4688" r="54.1174" gradientTransform="matrix(-4.371139e-008 1 -1 -4.371139e-008 372.8805 -220.9056)" gradientUnits="userSpaceOnUse">
							<stop  offset="0" style="stop-color:#5E89C6"/>
							<stop  offset="1" style="stop-color:#265EAC"/>
						</radialGradient>
						<polygon fill="url(#SVGID_19_)" points="4.756,76.743 54.872,54.24 3.531,73.784 						"/>
						
							<radialGradient id="SVGID_20_" cx="275.4385" cy="318.4688" r="54.1534" gradientTransform="matrix(-4.371139e-008 1 -1 -4.371139e-008 372.8805 -220.9056)" gradientUnits="userSpaceOnUse">
							<stop  offset="0" style="stop-color:#5E89C6"/>
							<stop  offset="1" style="stop-color:#265EAC"/>
						</radialGradient>
						<polygon fill="url(#SVGID_20_)" points="105.286,35.082 53.938,54.626 104.061,32.124 						"/>
					</g>
					<g>
						
							<radialGradient id="SVGID_21_" cx="275.4375" cy="318.4688" r="54.1182" gradientTransform="matrix(-4.371139e-008 1 -1 -4.371139e-008 372.8805 -220.9056)" gradientUnits="userSpaceOnUse">
							<stop  offset="0" style="stop-color:#5E89C6"/>
							<stop  offset="1" style="stop-color:#265EAC"/>
						</radialGradient>
						<polygon fill="url(#SVGID_21_)" points="35.064,105.331 54.598,53.966 32.11,104.108 						"/>
						
							<radialGradient id="SVGID_22_" cx="275.4385" cy="318.4678" r="54.0535" gradientTransform="matrix(-4.371139e-008 1 -1 -4.371139e-008 372.8805 -220.9056)" gradientUnits="userSpaceOnUse">
							<stop  offset="0" style="stop-color:#5E89C6"/>
							<stop  offset="1" style="stop-color:#265EAC"/>
						</radialGradient>
						<polygon fill="url(#SVGID_22_)" points="76.705,4.757 54.214,54.9 73.75,3.534 						"/>
					</g>
				</g>
				<g>
					<g>
						
							<radialGradient id="SVGID_23_" cx="275.438" cy="318.4678" r="54.1181" gradientTransform="matrix(-4.371139e-008 1 -1 -4.371139e-008 372.8805 -220.9056)" gradientUnits="userSpaceOnUse">
							<stop  offset="0" style="stop-color:#5E89C6"/>
							<stop  offset="1" style="stop-color:#265EAC"/>
						</radialGradient>
						<polygon fill="url(#SVGID_23_)" points="85.755,98.948 54.126,54.011 83.089,100.712 						"/>
						
							<radialGradient id="SVGID_24_" cx="275.4375" cy="318.4668" r="54.1206" gradientTransform="matrix(-4.371139e-008 1 -1 -4.371139e-008 372.8805 -220.9056)" gradientUnits="userSpaceOnUse">
							<stop  offset="0" style="stop-color:#5E89C6"/>
							<stop  offset="1" style="stop-color:#265EAC"/>
						</radialGradient>
						<polygon fill="url(#SVGID_24_)" points="25.726,8.153 54.682,54.852 23.056,9.916 						"/>
					</g>
					<g>
						
							<radialGradient id="SVGID_25_" cx="275.438" cy="318.4658" r="54.121" gradientTransform="matrix(-4.371139e-008 1 -1 -4.371139e-008 372.8805 -220.9056)" gradientUnits="userSpaceOnUse">
							<stop  offset="0" style="stop-color:#5E89C6"/>
							<stop  offset="1" style="stop-color:#265EAC"/>
						</radialGradient>
						<polygon fill="url(#SVGID_25_)" points="108.04,63.732 53.913,54.333 107.399,66.867 						"/>
						
							<radialGradient id="SVGID_26_" cx="275.4375" cy="318.4678" r="54.118" gradientTransform="matrix(-4.371139e-008 1 -1 -4.371139e-008 372.8805 -220.9056)" gradientUnits="userSpaceOnUse">
							<stop  offset="0" style="stop-color:#5E89C6"/>
							<stop  offset="1" style="stop-color:#265EAC"/>
						</radialGradient>
						<polygon fill="url(#SVGID_26_)" points="1.417,41.997 54.901,54.531 0.777,45.134 						"/>
					</g>
					<g>
						
							<radialGradient id="SVGID_27_" cx="275.4375" cy="318.4678" r="54.1195" gradientTransform="matrix(-4.371139e-008 1 -1 -4.371139e-008 372.8805 -220.9056)" gradientUnits="userSpaceOnUse">
							<stop  offset="0" style="stop-color:#5E89C6"/>
							<stop  offset="1" style="stop-color:#265EAC"/>
						</radialGradient>
						<polygon fill="url(#SVGID_27_)" points="9.913,85.795 54.828,54.155 8.146,83.128 						"/>
						
							<radialGradient id="SVGID_28_" cx="275.438" cy="318.4668" r="54.1296" gradientTransform="matrix(-4.371139e-008 1 -1 -4.371139e-008 372.8805 -220.9056)" gradientUnits="userSpaceOnUse">
							<stop  offset="0" style="stop-color:#5E89C6"/>
							<stop  offset="1" style="stop-color:#265EAC"/>
						</radialGradient>
						<polygon fill="url(#SVGID_28_)" points="100.667,25.741 53.985,54.709 98.901,23.069 						"/>
					</g>
					<g>
						
							<radialGradient id="SVGID_29_" cx="275.438" cy="318.4688" r="54.1182" gradientTransform="matrix(-4.371139e-008 1 -1 -4.371139e-008 372.8805 -220.9056)" gradientUnits="userSpaceOnUse">
							<stop  offset="0" style="stop-color:#5E89C6"/>
							<stop  offset="1" style="stop-color:#265EAC"/>
						</radialGradient>
						<polygon fill="url(#SVGID_29_)" points="45.112,108.086 54.507,53.938 41.977,107.448 						"/>
						
							<radialGradient id="SVGID_30_" cx="275.438" cy="318.4658" r="54.154" gradientTransform="matrix(-4.371139e-008 1 -1 -4.371139e-008 372.8805 -220.9056)" gradientUnits="userSpaceOnUse">
							<stop  offset="0" style="stop-color:#5E89C6"/>
							<stop  offset="1" style="stop-color:#265EAC"/>
						</radialGradient>
						<polygon fill="url(#SVGID_30_)" points="66.835,1.416 54.305,54.928 63.703,0.778 						"/>
					</g>
				</g>
				<g>
					<g>
						
							<radialGradient id="SVGID_31_" cx="275.438" cy="318.4668" r="54.119" gradientTransform="matrix(-4.371139e-008 1 -1 -4.371139e-008 372.8805 -220.9056)" gradientUnits="userSpaceOnUse">
							<stop  offset="0" style="stop-color:#5E89C6"/>
							<stop  offset="1" style="stop-color:#265EAC"/>
						</radialGradient>
						<polygon fill="url(#SVGID_31_)" points="66.884,107.436 54.305,53.938 63.746,108.082 						"/>
						
							<radialGradient id="SVGID_32_" cx="275.438" cy="318.4688" r="54.1085" gradientTransform="matrix(-4.371139e-008 1 -1 -4.371139e-008 372.8805 -220.9056)" gradientUnits="userSpaceOnUse">
							<stop  offset="0" style="stop-color:#5E89C6"/>
							<stop  offset="1" style="stop-color:#265EAC"/>
						</radialGradient>
						<polygon fill="url(#SVGID_32_)" points="45.066,0.788 54.507,54.928 41.929,1.428 						"/>
					</g>
					<g>
						
							<radialGradient id="SVGID_33_" cx="275.438" cy="318.4658" r="54.1184" gradientTransform="matrix(-4.371139e-008 1 -1 -4.371139e-008 372.8805 -220.9056)" gradientUnits="userSpaceOnUse">
							<stop  offset="0" style="stop-color:#5E89C6"/>
							<stop  offset="1" style="stop-color:#265EAC"/>
						</radialGradient>
						<polygon fill="url(#SVGID_33_)" points="100.692,83.084 53.985,54.155 98.93,85.757 						"/>
						
							<radialGradient id="SVGID_34_" cx="275.438" cy="318.4678" r="54.1187" gradientTransform="matrix(-4.371139e-008 1 -1 -4.371139e-008 372.8805 -220.9056)" gradientUnits="userSpaceOnUse">
							<stop  offset="0" style="stop-color:#5E89C6"/>
							<stop  offset="1" style="stop-color:#265EAC"/>
						</radialGradient>
						<polygon fill="url(#SVGID_34_)" points="9.885,23.107 54.828,54.709 8.122,25.784 						"/>
					</g>
					<g>
						
							<radialGradient id="SVGID_35_" cx="275.438" cy="318.4668" r="54.1188" gradientTransform="matrix(-4.371139e-008 1 -1 -4.371139e-008 372.8805 -220.9056)" gradientUnits="userSpaceOnUse">
							<stop  offset="0" style="stop-color:#5E89C6"/>
							<stop  offset="1" style="stop-color:#265EAC"/>
						</radialGradient>
						<polygon fill="url(#SVGID_35_)" points="1.428,66.916 54.901,54.333 0.785,63.78 						"/>
						
							<radialGradient id="SVGID_36_" cx="275.437" cy="318.4658" r="54.1575" gradientTransform="matrix(-4.371139e-008 1 -1 -4.371139e-008 372.8805 -220.9056)" gradientUnits="userSpaceOnUse">
							<stop  offset="0" style="stop-color:#5E89C6"/>
							<stop  offset="1" style="stop-color:#265EAC"/>
						</radialGradient>
						<polygon fill="url(#SVGID_36_)" points="108.026,45.087 53.913,54.531 107.389,41.951 						"/>
					</g>
					<g>
						
							<radialGradient id="SVGID_37_" cx="275.4375" cy="318.4678" r="54.1193" gradientTransform="matrix(-4.371139e-008 1 -1 -4.371139e-008 372.8805 -220.9056)" gradientUnits="userSpaceOnUse">
							<stop  offset="0" style="stop-color:#5E89C6"/>
							<stop  offset="1" style="stop-color:#265EAC"/>
						</radialGradient>
						<polygon fill="url(#SVGID_37_)" points="25.765,100.74 54.682,54.008 23.096,98.976 						"/>
						
							<radialGradient id="SVGID_38_" cx="275.4385" cy="318.4678" r="54.1727" gradientTransform="matrix(-4.371139e-008 1 -1 -4.371139e-008 372.8805 -220.9056)" gradientUnits="userSpaceOnUse">
							<stop  offset="0" style="stop-color:#5E89C6"/>
							<stop  offset="1" style="stop-color:#265EAC"/>
						</radialGradient>
						<polygon fill="url(#SVGID_38_)" points="85.718,9.89 54.126,54.856 83.046,8.125 						"/>
					</g>
				</g>
			</g>
		</g>
		<path fill="#265EAC" d="M44.2,74.113c61.741,0.739,48.631,8.694,38.357,16.787c-9.869,7.771-17.593,10.958-0.75,20.729
			c-7.073,4.94-15.862,7.862-25.371,7.862c-10.942,0-20.91-3.86-28.434-10.207c8.228-19.831,41.016-25.876,47.046-28.775
			C81.371,77.46,52.228,74.5,44.2,74.113"/>
		<path fill="#191D63" d="M44.201,74.033c7.687-0.038,15.381-0.014,23.069,0.42c3.845,0.215,7.691,0.497,11.525,1.001
			c1.916,0.265,3.83,0.585,5.733,1.036c1.891,0.475,3.808,0.987,5.579,2.147c0.435,0.303,0.863,0.656,1.216,1.126
			c0.355,0.463,0.612,1.07,0.651,1.696c0.073,1.28-0.542,2.291-1.127,3.117c-1.25,1.651-2.768,2.897-4.261,4.137
			c-1.51,1.232-3.009,2.389-4.533,3.585c-1.525,1.186-3.077,2.324-4.566,3.501c-1.469,1.181-2.954,2.402-3.943,3.829
			c-0.483,0.716-0.796,1.472-0.801,2.225c-0.014,0.756,0.29,1.526,0.758,2.245c0.958,1.446,2.43,2.667,3.925,3.777
			c1.516,1.117,3.131,2.121,4.769,3.087l1.042,0.618l-0.988,0.681c-4.04,2.788-8.541,4.881-13.254,6.189
			c-4.715,1.318-9.637,1.854-14.513,1.626c-4.878-0.225-9.721-1.217-14.276-2.979c-4.552-1.753-8.815-4.263-12.533-7.42
			l-0.288-0.247l0.145-0.344c1.494-3.567,3.811-6.738,6.533-9.426c2.727-2.697,5.838-4.952,9.105-6.902
			c6.557-3.906,13.704-6.619,20.909-8.932l5.42-1.69c1.798-0.569,3.636-1.079,5.337-1.811c0.398-0.175,0.854-0.464,0.855-0.694
			c0.017-0.23-0.437-0.549-0.816-0.738c-0.815-0.401-1.725-0.674-2.627-0.924c-1.812-0.488-3.67-0.849-5.527-1.179
			c-3.721-0.646-7.471-1.142-11.228-1.574c-3.755-0.423-7.521-0.803-11.294-1.023l0.009-0.16c3.781,0.188,7.551,0.523,11.316,0.908
			c3.764,0.396,7.523,0.85,11.263,1.46c1.868,0.309,3.735,0.654,5.578,1.13c0.92,0.243,1.84,0.503,2.729,0.934
			c0.219,0.109,0.438,0.232,0.646,0.396c0.195,0.164,0.446,0.394,0.451,0.783c-0.021,0.391-0.278,0.606-0.478,0.767
			c-0.216,0.16-0.438,0.275-0.661,0.381c-1.768,0.779-3.582,1.304-5.382,1.895l-5.397,1.741c-7.157,2.382-14.223,5.163-20.664,9.057
			c-3.206,1.95-6.246,4.194-8.88,6.844c-2.635,2.639-4.843,5.717-6.248,9.15l-0.143-0.587c3.65,3.055,7.827,5.467,12.275,7.143
			c4.449,1.681,9.175,2.608,13.921,2.789c4.75,0.178,9.523-0.393,14.076-1.717c4.557-1.312,8.894-3.382,12.757-6.107l0.056,1.296
			c-1.68-0.967-3.339-1.986-4.93-3.141c-1.573-1.167-3.149-2.408-4.341-4.173c-0.581-0.873-1.051-1.954-1.04-3.138
			c-0.003-1.183,0.484-2.268,1.079-3.134c1.226-1.734,2.784-2.955,4.299-4.172c1.53-1.198,3.078-2.329,4.595-3.498l4.541-3.521
			c1.474-1.184,2.961-2.398,4.054-3.809c0.528-0.698,0.932-1.481,0.89-2.154c-0.02-0.671-0.538-1.297-1.245-1.795
			c-1.44-0.983-3.293-1.547-5.105-2.02c-1.831-0.463-3.706-0.802-5.593-1.091c-3.776-0.587-7.592-0.971-11.413-1.279
			c-7.652-0.578-15.328-0.946-23.01-1.179L44.201,74.033z"/>
		<path fill="#191D63" d="M2.287,81.518c0,0.188,0,0.37,0.01,0.556l-0.952-1.345c0.329-0.208,0.649-0.397,0.961-0.558
			C2.297,80.624,2.287,81.064,2.287,81.518z"/>
		<path fill="#191D63" d="M39.368,73.84c-0.774-0.011-1.558-0.02-2.346-0.03C37.313,73.767,38.141,73.775,39.368,73.84z"/>
		<path fill="#191D63" d="M2.306,60.627c3.7-2.38,7.834-4.114,12.153-5.19c4.321-1.047,8.929-1.354,13.386-0.332
			c2.214,0.482,4.39,1.408,6.319,2.496c1.905,1.027,3.839,2,5.804,2.882c1.968,0.872,3.975,1.657,6.042,2.209
			c2.066,0.528,4.217,0.911,6.385,0.456c-2.008,0.996-4.41,0.999-6.614,0.698c-2.232-0.313-4.396-0.958-6.477-1.764
			c-2.088-0.8-4.087-1.778-6.035-2.847c-1.871-1.094-3.784-1.883-5.843-2.406c-4.097-1.049-8.473-0.948-12.713-0.191
			C10.463,57.405,6.283,58.765,2.306,60.627z"/>
		<path fill="#191D63" d="M54.407,107.124c-6.826,0.155-13.708-1.062-20.096-3.616c-6.39-2.534-12.286-6.355-17.249-11.174
			c-4.944-4.835-8.922-10.67-11.638-17.058C2.702,68.885,1.271,61.961,1.208,54.97c-0.074-6.936,1.234-13.954,3.898-20.413
			c2.638-6.47,6.577-12.41,11.501-17.381c4.919-4.979,10.854-8.954,17.319-11.647c6.464-2.703,13.474-4.093,20.479-4.1
			c7.006,0.006,14.016,1.396,20.483,4.099c6.465,2.694,12.395,6.67,17.321,11.646c4.924,4.971,8.859,10.913,11.499,17.382
			c2.664,6.464,3.977,13.463,3.902,20.428c-0.063,6.961-1.494,13.909-4.217,20.293c-2.718,6.388-6.698,12.224-11.643,17.061
			C81.855,102.009,68.089,107.518,54.407,107.124c6.824-0.149,13.587-1.619,19.81-4.306c6.218-2.691,11.874-6.621,16.558-11.459
			c4.706-4.819,8.467-10.541,10.969-16.766c2.514-6.218,3.761-12.924,3.694-19.609c-0.07-6.687-1.437-13.335-4.013-19.48
			c-2.576-6.145-6.381-11.759-11.106-16.44c-4.72-4.683-10.344-8.458-16.488-10.985c-6.138-2.542-12.78-3.834-19.423-3.827
			C47.764,4.24,41.123,5.535,34.984,8.077c-6.145,2.529-11.765,6.306-16.487,10.987C13.77,23.741,9.965,29.357,7.386,35.504
			c-2.575,6.148-3.945,12.779-4.014,19.494c-0.065,6.657,1.181,13.384,3.695,19.599c2.502,6.226,6.264,11.947,10.97,16.764
			c4.688,4.842,10.338,8.771,16.562,11.458C40.816,105.507,47.582,106.975,54.407,107.124z"/>
		<path fill="#191D63" d="M61.484,80.697c-5.812,1.255-11.437,3.232-16.826,5.638c-5.387,2.42-10.54,5.346-15.27,8.812
			c-4.73,3.459-9.027,7.465-12.65,11.967c-1.461,1.813-2.818,3.705-4.039,5.678c-0.812-1.07-1.569-2.17-2.292-3.3
			c1.18-1.582,2.441-3.113,3.776-4.563c4.125-4.514,8.865-8.375,13.942-11.628c5.079-3.251,10.505-5.9,16.1-8.003
			C49.831,83.212,55.597,81.585,61.484,80.697z"/>
		<path fill="#191D63" d="M50.394,78.843c-4.661,0.735-9.211,2.004-13.62,3.599c-4.41,1.603-8.669,3.582-12.652,5.977
			c-3.984,2.392-7.694,5.202-10.938,8.445c-2.174,2.177-4.143,4.554-5.837,7.087c-0.593-1.245-1.141-2.51-1.63-3.812
			c1.668-1.967,3.492-3.796,5.424-5.473c3.675-3.185,7.744-5.835,12.012-8.003c4.275-2.164,8.751-3.87,13.311-5.173
			C41.033,80.2,45.694,79.24,50.394,78.843z"/>
		<path fill="#191D63" d="M42.03,76.487c-3.795,0.215-7.544,0.893-11.21,1.837c-3.653,0.959-7.215,2.223-10.6,3.824
			c-3.39,1.603-6.593,3.538-9.512,5.807c-2.504,1.941-4.789,4.128-6.802,6.533c-0.349-1.369-0.642-2.763-0.878-4.177
			c1.897-1.727,3.912-3.278,6.039-4.665c3.29-2.14,6.794-3.871,10.423-5.229c3.615-1.369,7.354-2.356,11.133-3.017
			C34.401,76.76,38.225,76.382,42.03,76.487z"/>
		<path fill="#191D63" d="M45.036,74.243c-7.338-0.405-14.715,0.055-21.816,1.574c-3.551,0.763-7.029,1.789-10.372,3.111
			c-1.678,0.658-3.317,1.396-4.891,2.207c-0.789,0.403-1.573,0.828-2.326,1.281c-0.736,0.44-1.527,0.941-2.119,1.396l-1.215-1.726
			v-0.013c-0.01-0.186-0.01-0.368-0.01-0.556c0-0.453,0.01-0.894,0.019-1.347c0,0,0,0,0-0.009c0.556-0.313,1.09-0.584,1.658-0.856
			c0.856-0.426,1.734-0.813,2.606-1.169c1.766-0.726,3.543-1.346,5.353-1.884c3.607-1.076,7.281-1.819,10.976-2.292
			C30.302,73.029,37.752,73.217,45.036,74.243z"/>
		<path fill="#191D63" d="M31.123,74.29c2.43-2.502,5.315-4.58,8.486-6.148c0.796-0.388,1.618-0.728,2.463-1.011
			c0.842-0.284,1.628-0.562,2.418-0.896c1.573-0.665,3.091-1.44,4.543-2.335c2.905-1.799,5.609-3.937,8.277-6.155l2.026-1.657
			c0.709-0.561,1.445-1.088,2.212-1.572c1.537-0.968,3.215-1.756,5.001-2.228c1.782-0.479,3.647-0.646,5.473-0.518
			c1.833,0.125,3.614,0.559,5.313,1.137c1.706,0.579,3.314,1.365,4.869,2.151c1.563,0.787,3.108,1.604,4.644,2.435
			c6.121,3.35,12.111,6.916,18.008,10.637c-6.201-3.178-12.388-6.381-18.616-9.458c-1.558-0.772-3.12-1.53-4.691-2.252
			c-1.579-0.724-3.132-1.421-4.738-1.917c-3.204-1.005-6.61-1.319-9.772-0.418c-1.575,0.445-3.088,1.139-4.504,2.009
			c-0.711,0.436-1.399,0.918-2.059,1.431l-2.032,1.626c-2.748,2.147-5.55,4.316-8.675,6.016c-1.555,0.852-3.173,1.612-4.857,2.18
			c-0.836,0.293-1.709,0.535-2.535,0.758c-0.817,0.231-1.626,0.511-2.424,0.821C36.766,70.195,33.808,72.082,31.123,74.29z"/>
		<g>
			<path d="M2.579,60.474c0.189,0.453,0.191,0.575,0.162,0.616c-0.047,0.006-0.135-0.07-0.433-0.463
				c-0.209-0.446-0.207-0.574-0.164-0.619C2.205,59.997,2.299,60.071,2.579,60.474z"/>
		</g>
	</g>
</g>
<path fill="none" d="M105.437,54.672c-0.07-6.685-1.436-13.333-3.997-19.484c-2.568-6.15-6.364-11.778-11.084-16.471
	c-4.72-4.696-10.366-8.453-16.513-10.979C67.689,5.204,61.07,3.925,54.392,3.94c-6.608-0.022-13.278,1.261-19.417,3.794
	c-6.15,2.524-11.795,6.283-16.515,10.979c-4.722,4.693-8.516,10.321-11.084,16.471C4.815,41.34,3.443,47.97,3.372,54.683
	c-0.065,6.661,1.181,13.386,3.695,19.602c1.104,2.75,2.47,5.396,4.042,7.918c9.122,14.307,25.112,23.823,43.297,23.823
	c18.092,0,34.017-9.421,43.161-23.608c1.629-2.585,3.041-5.303,4.177-8.133C104.259,68.064,105.507,61.358,105.437,54.672z"/>
<path fill="#191D63" d="M107.613,55.296c0.247-13.967-5.551-27.884-15.437-37.774C87.25,12.56,81.34,8.569,74.878,5.868
	c-6.451-2.71-13.479-4.114-20.451-4.126C47.386,1.76,40.405,3.158,33.941,5.868c-6.463,2.701-12.372,6.691-17.295,11.652
	C6.753,27.402,0.963,41.341,1.208,55.28C1.255,66.97,5.376,78.479,12.531,87.584c9.683,12.54,24.846,20.64,41.875,20.64
	c17.328,0,32.739-8.379,42.394-21.298c2.651-3.482,4.877-7.296,6.594-11.334C106.118,69.206,107.552,62.26,107.613,55.296z
	 M54.407,106.648c-18.185,0-34.175-9.517-43.297-23.823c-1.573-2.521-2.938-5.168-4.042-7.918c-2.514-6.214-3.76-12.94-3.695-19.601
	c0.071-6.712,1.443-13.342,4.004-19.5c2.568-6.15,6.362-11.777,11.084-16.47c4.72-4.696,10.364-8.455,16.515-10.979
	c6.139-2.533,12.809-3.815,19.417-3.794c6.678-0.016,13.297,1.263,19.452,3.798c6.147,2.526,11.793,6.283,16.513,10.979
	c4.72,4.693,8.516,10.32,11.084,16.47c2.561,6.151,3.926,12.8,3.997,19.484c0.07,6.686-1.178,13.392-3.693,19.611
	c-1.136,2.83-2.547,5.548-4.177,8.133C88.423,97.228,72.499,106.648,54.407,106.648z"/>
<path fill="#191D63" d="M166.144,57.171c0.556,0.443,1.075,0.899,1.565,1.357c0.483,0.456,0.962,0.964,1.434,1.522
	c2.307,2.639,4.018,5.817,5.131,9.542h-3.209c-1.648-4.809-4.334-8.449-8.067-10.92c-1.17-0.75-2.435-1.401-3.8-1.959h-6.099v12.88
	h-3.087V40.411h1.5h1.586h9.604c0.723,0,1.447,0,2.172,0c0.727,0,1.446,0.028,2.17,0.085c0.225,0.029,0.433,0.049,0.628,0.063
	c0.196,0.015,0.404,0.048,0.625,0.104c0.613,0.139,1.207,0.327,1.777,0.564c0.571,0.233,1.078,0.546,1.525,0.937
	c0.558,0.471,1.037,1,1.44,1.584c0.404,0.583,0.715,1.222,0.939,1.917c0.25,0.803,0.375,1.653,0.375,2.542
	c0,1.166-0.182,2.263-0.542,3.293c-0.36,1.028-0.908,1.917-1.646,2.668c-0.736,0.747-1.655,1.355-2.751,1.813
	c-1.099,0.457-2.383,0.701-3.856,0.729c0.111,0.083,0.209,0.159,0.292,0.229C165.935,57.01,166.034,57.088,166.144,57.171z
	 M153.099,53.543h5.596h6.85c2.008,0,3.458-0.478,4.347-1.438c0.893-0.96,1.339-2.161,1.339-3.606c0-1.471-0.469-2.676-1.401-3.607
	c-0.935-0.929-2.402-1.395-4.408-1.395h-6.726h-5.596V53.543z"/>
<path fill="#191D63" d="M135.141,56.708c1.466-0.028,2.759-0.271,3.853-0.731c1.091-0.445,2.015-1.063,2.745-1.811
	c0.747-0.75,1.296-1.64,1.654-2.658c0.359-1.037,0.548-2.128,0.548-3.291c0-0.894-0.13-1.738-0.375-2.546
	c-0.23-0.703-0.547-1.339-0.949-1.927c-0.404-0.574-0.878-1.109-1.438-1.58c-0.447-0.39-0.949-0.704-1.523-0.937
	c-0.576-0.244-1.165-0.432-1.786-0.558c-0.216-0.058-0.427-0.104-0.616-0.116c-0.201-0.013-0.403-0.027-0.632-0.056
	c-0.719-0.059-1.439-0.088-2.172-0.088h-14.864v29.181h3.091V56.708h6.096H135.141z M139.468,52.109
	c-0.887,0.947-2.344,1.438-4.339,1.438h-12.45V43.5h12.323c2.011,0,3.476,0.459,4.411,1.393c0.935,0.935,1.394,2.129,1.394,3.61
	C140.806,49.939,140.361,51.146,139.468,52.109z"/>
<path fill="#191D63" d="M182.53,69.552V40.373h3.041v29.179H182.53z"/>
<path fill="#191D63" d="M213.266,41.413c1.947,0.692,3.6,1.674,4.962,2.939c1.359,1.268,2.409,2.799,3.148,4.607
	c0.734,1.806,1.102,3.806,1.102,6.004c0,2.222-0.36,4.227-1.082,6.021c-0.723,1.793-1.767,3.321-3.128,4.586
	c-1.362,1.266-3.021,2.245-4.98,2.938c-1.961,0.692-4.162,1.042-6.607,1.042h-7.088h-4.128V40.373h4.128h7.088
	C209.126,40.373,211.322,40.719,213.266,41.413z M212.33,65.655c1.599-0.571,2.925-1.362,3.98-2.376
	c1.056-1.015,1.84-2.233,2.356-3.65c0.513-1.418,0.771-2.972,0.771-4.665c0-1.699-0.258-3.248-0.771-4.648
	c-0.516-1.405-1.3-2.612-2.356-3.629c-1.055-1.012-2.381-1.808-3.98-2.374c-1.6-0.572-3.481-0.857-5.648-0.857h-3.793h-4.377v23.052
	h4.377h3.793C208.849,66.507,210.729,66.223,212.33,65.655z"/>
<path fill="#191D63" d="M234.177,43.413V53.58h17.009v3.043h-17.009v9.806h20.094v3.083h-23.135V40.373h23.135v3.04H234.177z"/>
<path fill="#191D63" d="M405.664,68.18h-3.106c0-9.708-1.158-18.749-1.879-23.41l-11.407,13.518L377.891,44.77
	c-0.73,4.661-1.906,13.726-1.906,23.41h-3.106c0-14.243,2.483-27.156,2.503-27.278l0.065-0.271h3.018l10.808,12.834l10.802-12.834
	h3.022l0.063,0.271C403.182,41.024,405.664,53.938,405.664,68.18z"/>
<path fill="#191D63" d="M416.465,43.562v9.44h16.041v2.873h-16.041v9.398h18.952v2.907h-21.822V40.696h21.822v2.866H416.465z"/>
<path fill="#191D63" d="M463.643,60.083l0.474,2.316c0.147,0.914,0.25,1.86,0.315,2.813c0.082,0.953,0.122,1.964,0.122,3.004h2.878
	c0-4.163-0.601-8.115-1.782-11.86c-0.455-1.516-1.016-2.936-1.653-4.33c-0.646-1.404-1.387-2.729-2.237-4.013
	c-0.701-1.095-1.387-2.073-2.07-2.877c-0.66-0.808-1.259-1.49-1.799-2.05c-0.538-0.538-0.977-0.95-1.324-1.241
	c-0.335-0.273-0.521-0.413-0.543-0.436l-0.828-0.638l-0.868,0.601c-0.018,0.019-0.205,0.166-0.536,0.433
	c-0.353,0.25-0.785,0.638-1.344,1.18c-0.563,0.52-1.161,1.18-1.845,1.986c-0.683,0.785-1.384,1.741-2.089,2.839
	c-1.662,2.522-2.961,5.295-3.892,8.337c-1.159,3.772-1.737,7.801-1.737,12.07h2.876c0-1.041,0.04-2.051,0.125-3.004
	c0.06-0.953,0.188-1.899,0.308-2.813l0.418-2.316H463.643z M447.356,57.177c0.37-1.279,0.778-2.435,1.256-3.47
	c0.746-1.637,1.492-3.047,2.26-4.205c0.812-1.282,1.589-2.339,2.38-3.164c0.764-0.829,1.384-1.471,1.862-1.909
	c0.478,0.438,1.096,1.1,1.845,1.947c0.763,0.848,1.571,1.924,2.399,3.208c0.746,1.182,1.486,2.588,2.26,4.225
	c0.445,1.016,0.884,2.15,1.257,3.368H447.356z"/>
<path fill="#191D63" d="M491.539,41.678c1.834,0.655,3.394,1.58,4.677,2.771c1.281,1.193,2.277,2.639,2.971,4.344
	c0.693,1.705,1.044,3.593,1.044,5.662c0,2.102-0.346,3.995-1.023,5.688c-0.684,1.689-1.667,3.132-2.951,4.326
	c-1.283,1.189-2.851,2.118-4.699,2.771c-1.848,0.654-3.927,0.982-6.234,0.982h-6.679h-3.902V40.696h3.902h6.679
	C487.63,40.696,489.704,41.021,491.539,41.678z M490.653,64.544c1.506-0.536,2.76-1.282,3.753-2.241
	c0.999-0.956,1.734-2.105,2.221-3.438c0.49-1.336,0.73-2.809,0.73-4.41c0-1.594-0.24-3.056-0.73-4.382
	c-0.486-1.323-1.222-2.462-2.221-3.417c-0.993-0.961-2.247-1.705-3.753-2.245c-1.51-0.533-3.289-0.808-5.331-0.808h-3.581h-4.127
	v21.749h4.127h3.581C487.364,65.353,489.144,65.084,490.653,64.544z"/>
<path fill="#191D63" d="M536.478,54.417c0,1.627-0.266,3.188-0.809,4.684c-0.533,1.49-1.313,2.872-2.338,4.127
	c-0.683,0.866-1.454,1.635-2.319,2.32c-0.866,0.683-1.797,1.272-2.788,1.769c-0.11,0.055-0.213,0.1-0.317,0.14
	c-0.105,0.04-0.208,0.083-0.315,0.138c-1.574,0.655-3.211,1.048-4.915,1.178h-0.038c-0.06,0-0.107,0.007-0.16,0.021
	c-0.052,0.013-0.107,0.017-0.157,0.017h-0.115h-0.237h-0.315h-0.073h-0.122h-0.278h-0.275h-0.117c-0.053,0-0.105-0.004-0.155-0.017
	c-0.053-0.013-0.105-0.021-0.16-0.021h-0.04c-0.78-0.053-1.562-0.163-2.317-0.334c-0.761-0.172-1.509-0.398-2.239-0.689
	c-0.058-0.022-0.108-0.055-0.16-0.08c-0.056-0.024-0.105-0.049-0.155-0.075h-0.04c-0.11-0.055-0.205-0.098-0.298-0.138
	c-0.09-0.04-0.2-0.084-0.331-0.14c-0.998-0.497-1.929-1.085-2.792-1.769c-0.866-0.686-1.637-1.454-2.322-2.32
	c-0.996-1.256-1.763-2.638-2.301-4.127c-0.537-1.495-0.803-3.056-0.803-4.684c0-1.729,0.295-3.381,0.883-4.955
	c0.589-1.576,1.462-3.013,2.613-4.323c0.686-0.816,1.454-1.527,2.3-2.148c0.855-0.616,1.749-1.145,2.7-1.592h0.037
	c0-0.024,0.016-0.036,0.04-0.036c0.022-0.026,0.048-0.042,0.08-0.042c0.021,0,0.063-0.011,0.118-0.038
	c0.024-0.028,0.047-0.04,0.075-0.04c0.027,0,0.05-0.013,0.077-0.04c0.025,0,0.045-0.007,0.058-0.022
	c0.018-0.011,0.038-0.017,0.061-0.017c0.052-0.024,0.1-0.043,0.138-0.063c0.039-0.012,0.082-0.03,0.14-0.053l0.08-0.045
	c0.098-0.048,0.192-0.072,0.272-0.072c0.025-0.03,0.053-0.045,0.078-0.045c0.157-0.053,0.263-0.088,0.313-0.115h0.048
	c0.315-0.104,0.62-0.202,0.936-0.296c0.315-0.094,0.644-0.161,0.986-0.217h0.077c0.053-0.027,0.088-0.036,0.118-0.036
	c0.053,0,0.107-0.015,0.157-0.042h0.16c0.051,0,0.085-0.003,0.118-0.019c0.022-0.011,0.058-0.02,0.115-0.02h0.154
	c0.058-0.03,0.12-0.039,0.2-0.039H520c0.053-0.026,0.123-0.038,0.198-0.038h0.2c0.053-0.031,0.112-0.044,0.188-0.044h0.2h0.163
	h0.229c0.138,0,0.223-0.011,0.278-0.038h0.122h0.115c0.053,0.026,0.128,0.038,0.23,0.038h0.237h0.158h0.237
	c0.08,0,0.128,0.013,0.158,0.044h0.235c0.074,0,0.127,0.011,0.157,0.038h0.198c0.1,0,0.167,0.009,0.194,0.039h0.195
	c0.053,0,0.093,0.008,0.12,0.02c0.022,0.015,0.065,0.019,0.113,0.019h0.117c0.058,0.026,0.107,0.042,0.16,0.042
	s0.107,0.009,0.158,0.036h0.08c0.263,0.057,0.518,0.111,0.763,0.177c0.253,0.068,0.506,0.134,0.771,0.217l0.354,0.119h0.037
	l0.358,0.115l0.04,0.045c0.077,0,0.165,0.024,0.272,0.072c0.027,0.034,0.065,0.045,0.12,0.045c0.1,0.051,0.18,0.076,0.232,0.076
	c0.056,0.049,0.11,0.079,0.158,0.079l0.16,0.08l0.08,0.038c0.024,0,0.063,0.016,0.115,0.042l0.04,0.036
	c0.943,0.447,1.842,0.976,2.695,1.592c0.846,0.621,1.631,1.333,2.337,2.148h-0.037c1.15,1.31,2.029,2.747,2.635,4.323
	C536.177,51.036,536.478,52.688,536.478,54.417z M522.162,65.904c1.6-0.082,3.099-0.435,4.485-1.065
	c1.391-0.627,2.595-1.46,3.616-2.492c1.025-1.039,1.831-2.229,2.422-3.583c0.594-1.348,0.886-2.798,0.886-4.346
	c0-1.544-0.292-3.002-0.886-4.365c-0.591-1.363-1.396-2.56-2.422-3.599c-1.021-1.036-2.226-1.869-3.616-2.496
	c-1.387-0.63-2.886-0.981-4.485-1.065h-0.274h-0.158h-0.15h-0.205h-0.112h-0.275h-0.037c-1.577,0.083-3.061,0.435-4.45,1.065
	c-1.386,0.627-2.6,1.459-3.634,2.496c-1.041,1.039-1.849,2.235-2.439,3.599c-0.586,1.363-0.881,2.821-0.881,4.365
	c0,1.548,0.295,2.998,0.881,4.346c0.591,1.354,1.398,2.545,2.439,3.583c1.034,1.032,2.248,1.865,3.634,2.492
	c1.39,0.63,2.873,0.983,4.45,1.065h0.037c0.053,0,0.095,0.007,0.135,0.019c0.043,0.015,0.088,0.022,0.141,0.022h0.195h0.122h0.115
	h0.193c0.05,0,0.103-0.007,0.135-0.022C522.07,65.911,522.11,65.904,522.162,65.904z"/>
<path fill="#191D63" d="M542.818,40.631h3.104c0,9.705,1.161,18.753,1.882,23.411l11.404-13.52l11.389,13.52
	c0.721-4.658,1.902-13.726,1.902-23.411h3.103c0,14.243-2.479,27.157-2.502,27.279l-0.063,0.27h-3.021l-10.809-12.834L548.404,68.18
	h-3.023l-0.06-0.27C545.301,67.788,542.818,54.874,542.818,40.631z"/>
<path fill="#191D63" d="M592.857,69.979c-6.444,0.002-10.929-6.281-11.146-6.583l2.545-1.782c0.045,0.064,4.803,6.69,10.618,4.969
	c2.66-0.785,4.492-2.809,4.46-4.924c-0.045-2.662-2.945-4.995-7.753-6.241c-8.181-2.122-8.526-6.557-8.291-8.364
	c0.476-3.757,4.449-6.94,8.681-6.94c7.348,0,9.638,5.575,9.733,5.813l-2.891,1.141l1.443-0.568l-1.437,0.583
	c-0.063-0.16-1.669-3.859-6.85-3.859c-2.604,0-5.33,2.054-5.605,4.222c-0.268,2.101,1.922,3.91,5.989,4.967
	c9.001,2.33,10.053,7.212,10.085,9.202c0.06,3.551-2.63,6.748-6.687,7.944C594.754,69.852,593.785,69.979,592.857,69.979z"/>
<path fill="#191D63" d="M275.758,62.015c-1.282-0.707-2.283-1.67-2.997-2.897c-0.722-1.228-1.083-2.606-1.083-4.135
	c0-1.527,0.36-2.904,1.083-4.131c0.714-1.229,1.715-2.194,2.997-2.898c1.276-0.701,2.701-1.054,4.278-1.054s2.996,0.351,4.261,1.042
	c1.263,0.698,2.26,1.667,2.984,2.9c0.729,1.237,1.095,2.616,1.095,4.143c0,1.529-0.365,2.913-1.095,4.146
	c-0.725,1.234-1.722,2.202-2.984,2.896c-1.265,0.694-2.684,1.044-4.261,1.044S277.034,62.718,275.758,62.015z M283.446,60.716
	c1.012-0.566,1.806-1.354,2.384-2.358c0.574-1.008,0.86-2.133,0.86-3.376c0-1.242-0.286-2.365-0.86-3.372
	c-0.578-1.006-1.372-1.794-2.384-2.363c-1.017-0.566-2.152-0.85-3.41-0.85c-1.257,0-2.395,0.284-3.418,0.85
	c-1.019,0.569-1.823,1.356-2.406,2.363c-0.584,1.007-0.874,2.13-0.874,3.372c0,1.243,0.289,2.369,0.874,3.376
	c0.583,1.004,1.388,1.792,2.406,2.358c1.023,0.569,2.161,0.856,3.418,0.856C281.294,61.572,282.429,61.286,283.446,60.716z"/>
<path fill="#191D63" d="M293.823,48.486v6.247h8.222v1.454h-8.222v6.747h-1.678V47.035h10.9v1.451H293.823z"/>
<path fill="#191D63" d="M315.555,48.486h-5.584v-1.451h12.853v1.451h-5.587v14.447h-1.682V48.486z"/>
<path fill="#191D63" d="M338.79,47.035v15.898h-1.655v-7.335h-9.95v7.335h-1.68V47.035h1.68v7.088h9.95v-7.088H338.79z"/>
<path fill="#191D63" d="M355.21,61.479v1.455h-11.237V47.035h10.896v1.451h-9.22v5.658h8.225v1.429h-8.225v5.905H355.21z"/>
</svg>
