<?xml version="1.0" encoding="utf-8"?>
<!-- Generator: Adobe Illustrator 15.0.0, SVG Export Plug-In  -->
<!DOCTYPE svg PUBLIC "-//W3C//DTD SVG 1.1//EN" "http://www.w3.org/Graphics/SVG/1.1/DTD/svg11.dtd" [
	<!ENTITY ns_flows "http://ns.adobe.com/Flows/1.0/">
]>
<svg version="1.1"
	 xmlns="http://www.w3.org/2000/svg" xmlns:xlink="http://www.w3.org/1999/xlink" xmlns:a="http://ns.adobe.com/AdobeSVGViewerExtensions/3.0/"
	 x="0px" y="0px" width="432px" height="180px" viewBox="-3.873 -2.494 432 180" enable-background="new -3.873 -2.494 432 180"
	 xml:space="preserve">
<defs>
</defs>
<g>
	<defs>
		<path id="SVGID_1_" d="M87.013,171.33c-46.034,0-83.35-37.335-83.35-83.388c0-46.057,37.316-83.397,83.35-83.397
			c46.036,0,83.357,37.34,83.357,83.397C170.37,133.995,133.049,171.33,87.013,171.33"/>
	</defs>
	<clipPath id="SVGID_3_">
		<use xlink:href="#SVGID_1_"  overflow="visible"/>
	</clipPath>
	<g clip-path="url(#SVGID_3_)">
		<path fill="#101235" d="M87.013,171.33c-10.915,0.083-21.861-1.987-31.998-6.123c-10.141-4.121-19.46-10.278-27.268-17.991
			c-7.797-7.723-14.059-17.003-18.302-27.143c-4.256-10.14-6.458-21.127-6.492-32.142C2.9,76.934,5.022,65.896,9.249,55.715
			c4.202-10.189,10.441-19.53,18.227-27.336c7.78-7.811,17.104-14.085,27.292-18.322c10.185-4.251,21.211-6.435,32.256-6.44
			c11.022,0.003,22.065,2.19,32.245,6.441c10.188,4.238,19.512,10.513,27.292,18.324c7.786,7.806,14.025,17.147,18.227,27.337
			c4.226,10.182,6.353,21.214,6.296,32.22c-0.035,11.006-2.238,22.001-6.496,32.138c-4.245,10.14-10.509,19.418-18.306,27.142
			c-7.809,7.712-17.128,13.868-27.27,17.988C108.875,169.343,97.928,171.413,87.013,171.33c10.915-0.068,21.801-2.289,31.825-6.54
			c10.028-4.237,19.184-10.476,26.802-18.211c7.64-7.712,13.761-16.916,17.865-26.949c4.12-10.026,6.202-20.865,6.152-31.689
			c-0.042-10.823-2.2-21.625-6.351-31.606c-4.146-9.984-10.29-19.126-17.939-26.758c-7.645-7.636-16.795-13.758-26.777-17.88
			c-9.98-4.137-20.77-6.243-31.577-6.226c-10.784-0.022-21.591,2.085-31.567,6.221c-9.982,4.122-19.133,10.243-26.778,17.879
			c-7.65,7.631-13.793,16.774-17.94,26.758c-4.15,9.984-6.314,20.778-6.354,31.611c-0.05,10.815,2.031,21.661,6.15,31.686
			c4.104,10.034,10.225,19.238,17.863,26.952c7.618,7.735,16.773,13.975,26.802,18.212C65.212,169.042,76.098,171.262,87.013,171.33
			z"/>
	</g>
	<g clip-path="url(#SVGID_3_)">
		
			<radialGradient id="SVGID_4_" cx="79.4316" cy="177.3188" r="84.0515" gradientTransform="matrix(1 0 0 1.0005 7.0879 -89.6038)" gradientUnits="userSpaceOnUse">
			<stop  offset="0.3758" style="stop-color:#62A293"/>
			<stop  offset="1" style="stop-color:#277F6E"/>
		</radialGradient>
		<path fill="url(#SVGID_4_)" d="M170.573,87.804c0,46.448-37.633,84.092-84.05,84.092c-46.424,0-84.057-37.645-84.057-84.092
			c0-46.441,37.633-84.093,84.057-84.093C132.94,3.711,170.573,41.363,170.573,87.804z"/>
		
			<radialGradient id="SVGID_5_" cx="79.4316" cy="177.8882" r="84.071" gradientTransform="matrix(1 0 0 1 7.0879 -89.9434)" gradientUnits="userSpaceOnUse">
			<stop  offset="0" style="stop-color:#749FD4"/>
			<stop  offset="1" style="stop-color:#4E74B9"/>
		</radialGradient>
		<path fill="url(#SVGID_5_)" d="M170.573,87.941c0,46.448-37.633,84.092-84.05,84.092c-46.424,0-84.057-37.645-84.057-84.092
			c0-46.44,37.633-84.085,84.057-84.085C132.94,3.856,170.573,41.501,170.573,87.941z"/>
		<path fill="#87C76D" d="M4.121,96.721c0,0,21.569-12.31,35.217-8.056c13.645,4.261,36.683,16.415,43.265,11.959
			c6.58-4.463,23.159-25.214,45.353-12.888c18.589,10.322,40.056,20.857,40.056,20.857s-9.617,30.989-29.294,44.734
			c-19.675,13.754-45.063,26.037-84.374,11.354C15.035,149.996,2.699,103.838,4.121,96.721z"/>
		<g>
			<defs>
				<path id="SVGID_2_" d="M170.366,87.935c0,7.265-0.931,14.299-2.664,21.027c-6.813-3.89-28.418-16.073-39.747-21.225
					c-13.559-6.18-23.593-3.859-32.843,3.681c-4.685,3.822-8.951,7.263-13.35,10.098c-5.787,1.052-15.157-1.038-28.78-8.589
					c-20.26-11.25-45.271,1.79-48.856,3.792c-0.317-2.893-0.467-5.822-0.467-8.784c0-46.05,37.316-83.391,83.364-83.391
					C133.049,4.544,170.366,41.884,170.366,87.935z"/>
			</defs>
			<clipPath id="SVGID_6_">
				<use xlink:href="#SVGID_2_"  overflow="visible"/>
			</clipPath>
			<g clip-path="url(#SVGID_6_)">
				<g>
					
						<radialGradient id="SVGID_7_" cx="211.7734" cy="212.0659" r="86.5542" gradientTransform="matrix(-4.371139e-008 1 -1 -4.371139e-008 299.09 -124.5575)" gradientUnits="userSpaceOnUse">
						<stop  offset="0" style="stop-color:#5E89C6"/>
						<stop  offset="1" style="stop-color:#265EAC"/>
					</radialGradient>
					<polygon fill="url(#SVGID_7_)" points="89.572,174.105 87.013,86.249 84.457,174.105 					"/>
					
						<radialGradient id="SVGID_8_" cx="211.7729" cy="212.0659" r="86.5177" gradientTransform="matrix(-4.371139e-008 1 -1 -4.371139e-008 299.09 -124.5575)" gradientUnits="userSpaceOnUse">
						<stop  offset="0" style="stop-color:#5E89C6"/>
						<stop  offset="1" style="stop-color:#265EAC"/>
					</radialGradient>
					<polygon fill="url(#SVGID_8_)" points="89.572,0 87.013,87.863 84.457,0 					"/>
				</g>
				<g>
					
						<radialGradient id="SVGID_9_" cx="211.7734" cy="212.0669" r="86.5547" gradientTransform="matrix(-4.371139e-008 1 -1 -4.371139e-008 299.09 -124.5575)" gradientUnits="userSpaceOnUse">
						<stop  offset="0" style="stop-color:#5E89C6"/>
						<stop  offset="1" style="stop-color:#265EAC"/>
					</radialGradient>
					<polygon fill="url(#SVGID_9_)" points="150.355,146.801 86.442,86.487 146.732,150.424 					"/>
					
						<radialGradient id="SVGID_10_" cx="211.7734" cy="212.0649" r="86.5542" gradientTransform="matrix(-4.371139e-008 1 -1 -4.371139e-008 299.09 -124.5575)" gradientUnits="userSpaceOnUse">
						<stop  offset="0" style="stop-color:#5E89C6"/>
						<stop  offset="1" style="stop-color:#265EAC"/>
					</radialGradient>
					<polygon fill="url(#SVGID_10_)" points="27.294,23.69 87.584,87.63 23.678,27.309 					"/>
				</g>
				<g>
					
						<radialGradient id="SVGID_11_" cx="211.7734" cy="212.063" r="86.5562" gradientTransform="matrix(-4.371139e-008 1 -1 -4.371139e-008 299.09 -124.5575)" gradientUnits="userSpaceOnUse">
						<stop  offset="0" style="stop-color:#5E89C6"/>
						<stop  offset="1" style="stop-color:#265EAC"/>
					</radialGradient>
					<polygon fill="url(#SVGID_11_)" points="0,89.623 87.823,87.059 0,84.495 					"/>
					
						<radialGradient id="SVGID_12_" cx="211.7734" cy="212.0649" r="86.5715" gradientTransform="matrix(-4.371139e-008 1 -1 -4.371139e-008 299.09 -124.5575)" gradientUnits="userSpaceOnUse">
						<stop  offset="0" style="stop-color:#5E89C6"/>
						<stop  offset="1" style="stop-color:#265EAC"/>
					</radialGradient>
					<polygon fill="url(#SVGID_12_)" points="174.029,89.623 86.208,87.059 174.029,84.495 					"/>
				</g>
				<g>
					
						<radialGradient id="SVGID_13_" cx="211.7734" cy="212.0649" r="86.5546" gradientTransform="matrix(-4.371139e-008 1 -1 -4.371139e-008 299.09 -124.5575)" gradientUnits="userSpaceOnUse">
						<stop  offset="0" style="stop-color:#5E89C6"/>
						<stop  offset="1" style="stop-color:#265EAC"/>
					</radialGradient>
					<polygon fill="url(#SVGID_13_)" points="27.294,150.424 87.584,86.487 23.678,146.801 					"/>
					
						<radialGradient id="SVGID_14_" cx="211.7734" cy="212.0669" r="86.3314" gradientTransform="matrix(-4.371139e-008 1 -1 -4.371139e-008 299.09 -124.5575)" gradientUnits="userSpaceOnUse">
						<stop  offset="0" style="stop-color:#5E89C6"/>
						<stop  offset="1" style="stop-color:#265EAC"/>
					</radialGradient>
					<polygon fill="url(#SVGID_14_)" points="150.355,27.311 86.442,87.63 146.732,23.69 					"/>
				</g>
				<g>
					<g>
						
							<radialGradient id="SVGID_15_" cx="211.7734" cy="212.0649" r="86.557" gradientTransform="matrix(-4.371139e-008 1 -1 -4.371139e-008 299.09 -124.5575)" gradientUnits="userSpaceOnUse">
							<stop  offset="0" style="stop-color:#5E89C6"/>
							<stop  offset="1" style="stop-color:#265EAC"/>
						</radialGradient>
						<polygon fill="url(#SVGID_15_)" points="122.678,166.506 86.708,86.311 117.95,168.463 						"/>
						
							<radialGradient id="SVGID_16_" cx="211.7734" cy="212.064" r="86.5554" gradientTransform="matrix(-4.371139e-008 1 -1 -4.371139e-008 299.09 -124.5575)" gradientUnits="userSpaceOnUse">
							<stop  offset="0" style="stop-color:#5E89C6"/>
							<stop  offset="1" style="stop-color:#265EAC"/>
						</radialGradient>
						<polygon fill="url(#SVGID_16_)" points="56.082,5.651 87.325,87.804 51.354,7.608 						"/>
					</g>
					<g>
						
							<radialGradient id="SVGID_17_" cx="211.7729" cy="212.0649" r="86.5627" gradientTransform="matrix(-4.371139e-008 1 -1 -4.371139e-008 299.09 -124.5575)" gradientUnits="userSpaceOnUse">
							<stop  offset="0" style="stop-color:#5E89C6"/>
							<stop  offset="1" style="stop-color:#265EAC"/>
						</radialGradient>
						<polygon fill="url(#SVGID_17_)" points="168.39,118.007 86.268,86.749 166.426,122.74 						"/>
						
							<radialGradient id="SVGID_18_" cx="211.7734" cy="212.0669" r="86.5522" gradientTransform="matrix(-4.371139e-008 1 -1 -4.371139e-008 299.09 -124.5575)" gradientUnits="userSpaceOnUse">
							<stop  offset="0" style="stop-color:#5E89C6"/>
							<stop  offset="1" style="stop-color:#265EAC"/>
						</radialGradient>
						<polygon fill="url(#SVGID_18_)" points="7.605,51.377 87.761,87.366 5.646,56.107 						"/>
					</g>
					<g>
						
							<radialGradient id="SVGID_19_" cx="211.7729" cy="212.0669" r="86.554" gradientTransform="matrix(-4.371139e-008 1 -1 -4.371139e-008 299.09 -124.5575)" gradientUnits="userSpaceOnUse">
							<stop  offset="0" style="stop-color:#5E89C6"/>
							<stop  offset="1" style="stop-color:#265EAC"/>
						</radialGradient>
						<polygon fill="url(#SVGID_19_)" points="7.605,122.74 87.761,86.749 5.646,118.007 						"/>
						
							<radialGradient id="SVGID_20_" cx="211.7734" cy="212.064" r="86.6432" gradientTransform="matrix(-4.371139e-008 1 -1 -4.371139e-008 299.09 -124.5575)" gradientUnits="userSpaceOnUse">
							<stop  offset="0" style="stop-color:#5E89C6"/>
							<stop  offset="1" style="stop-color:#265EAC"/>
						</radialGradient>
						<polygon fill="url(#SVGID_20_)" points="168.387,56.107 86.268,87.366 166.426,51.377 						"/>
					</g>
					<g>
						
							<radialGradient id="SVGID_21_" cx="211.7734" cy="212.0649" r="86.5562" gradientTransform="matrix(-4.371139e-008 1 -1 -4.371139e-008 299.09 -124.5575)" gradientUnits="userSpaceOnUse">
							<stop  offset="0" style="stop-color:#5E89C6"/>
							<stop  offset="1" style="stop-color:#265EAC"/>
						</radialGradient>
						<polygon fill="url(#SVGID_21_)" points="56.082,168.463 87.323,86.311 51.354,166.506 						"/>
						
							<radialGradient id="SVGID_22_" cx="211.7734" cy="212.0669" r="86.4459" gradientTransform="matrix(-4.371139e-008 1 -1 -4.371139e-008 299.09 -124.5575)" gradientUnits="userSpaceOnUse">
							<stop  offset="0" style="stop-color:#5E89C6"/>
							<stop  offset="1" style="stop-color:#265EAC"/>
						</radialGradient>
						<polygon fill="url(#SVGID_22_)" points="122.678,7.608 86.706,87.804 117.95,5.651 						"/>
					</g>
				</g>
				<g>
					<g>
						
							<radialGradient id="SVGID_23_" cx="211.7729" cy="212.064" r="86.5556" gradientTransform="matrix(-4.371139e-008 1 -1 -4.371139e-008 299.09 -124.5575)" gradientUnits="userSpaceOnUse">
							<stop  offset="0" style="stop-color:#5E89C6"/>
							<stop  offset="1" style="stop-color:#265EAC"/>
						</radialGradient>
						<polygon fill="url(#SVGID_23_)" points="137.153,158.251 86.568,86.382 132.885,161.075 						"/>
						
							<radialGradient id="SVGID_24_" cx="211.7734" cy="212.0649" r="86.5541" gradientTransform="matrix(-4.371139e-008 1 -1 -4.371139e-008 299.09 -124.5575)" gradientUnits="userSpaceOnUse">
							<stop  offset="0" style="stop-color:#5E89C6"/>
							<stop  offset="1" style="stop-color:#265EAC"/>
						</radialGradient>
						<polygon fill="url(#SVGID_24_)" points="41.146,13.04 87.456,87.728 36.876,15.858 						"/>
					</g>
					<g>
						
							<radialGradient id="SVGID_25_" cx="211.7729" cy="212.0649" r="86.5587" gradientTransform="matrix(-4.371139e-008 1 -1 -4.371139e-008 299.09 -124.5575)" gradientUnits="userSpaceOnUse">
							<stop  offset="0" style="stop-color:#5E89C6"/>
							<stop  offset="1" style="stop-color:#265EAC"/>
						</radialGradient>
						<polygon fill="url(#SVGID_25_)" points="172.792,101.929 86.223,86.896 171.768,106.943 						"/>
						
							<radialGradient id="SVGID_26_" cx="211.7734" cy="212.0659" r="86.5526" gradientTransform="matrix(-4.371139e-008 1 -1 -4.371139e-008 299.09 -124.5575)" gradientUnits="userSpaceOnUse">
							<stop  offset="0" style="stop-color:#5E89C6"/>
							<stop  offset="1" style="stop-color:#265EAC"/>
						</radialGradient>
						<polygon fill="url(#SVGID_26_)" points="2.264,67.167 87.804,87.215 1.243,72.185 						"/>
					</g>
					<g>
						
							<radialGradient id="SVGID_27_" cx="211.7734" cy="212.0649" r="86.5555" gradientTransform="matrix(-4.371139e-008 1 -1 -4.371139e-008 299.09 -124.5575)" gradientUnits="userSpaceOnUse">
							<stop  offset="0" style="stop-color:#5E89C6"/>
							<stop  offset="1" style="stop-color:#265EAC"/>
						</radialGradient>
						<polygon fill="url(#SVGID_27_)" points="15.854,137.217 87.689,86.613 13.028,132.952 						"/>
						
							<radialGradient id="SVGID_28_" cx="211.7734" cy="212.0649" r="86.5478" gradientTransform="matrix(-4.371139e-008 1 -1 -4.371139e-008 299.09 -124.5575)" gradientUnits="userSpaceOnUse">
							<stop  offset="0" style="stop-color:#5E89C6"/>
							<stop  offset="1" style="stop-color:#265EAC"/>
						</radialGradient>
						<polygon fill="url(#SVGID_28_)" points="161.001,41.167 86.34,87.499 158.178,36.895 						"/>
					</g>
					<g>
						
							<radialGradient id="SVGID_29_" cx="211.7725" cy="212.0659" r="86.5557" gradientTransform="matrix(-4.371139e-008 1 -1 -4.371139e-008 299.09 -124.5575)" gradientUnits="userSpaceOnUse">
							<stop  offset="0" style="stop-color:#5E89C6"/>
							<stop  offset="1" style="stop-color:#265EAC"/>
						</radialGradient>
						<polygon fill="url(#SVGID_29_)" points="72.149,172.868 87.175,86.266 67.134,171.848 						"/>
						
							<radialGradient id="SVGID_30_" cx="211.7734" cy="212.0659" r="86.4721" gradientTransform="matrix(-4.371139e-008 1 -1 -4.371139e-008 299.09 -124.5575)" gradientUnits="userSpaceOnUse">
							<stop  offset="0" style="stop-color:#5E89C6"/>
							<stop  offset="1" style="stop-color:#265EAC"/>
						</radialGradient>
						<polygon fill="url(#SVGID_30_)" points="106.895,2.264 86.852,87.849 101.882,1.245 						"/>
					</g>
				</g>
				<g>
					<g>
						
							<radialGradient id="SVGID_31_" cx="211.7729" cy="212.0649" r="86.5576" gradientTransform="matrix(-4.371139e-008 1 -1 -4.371139e-008 299.09 -124.5575)" gradientUnits="userSpaceOnUse">
							<stop  offset="0" style="stop-color:#5E89C6"/>
							<stop  offset="1" style="stop-color:#265EAC"/>
						</radialGradient>
						<polygon fill="url(#SVGID_31_)" points="106.971,171.83 86.852,86.266 101.953,172.863 						"/>
						
							<radialGradient id="SVGID_32_" cx="211.7729" cy="212.0649" r="86.5558" gradientTransform="matrix(-4.371139e-008 1 -1 -4.371139e-008 299.09 -124.5575)" gradientUnits="userSpaceOnUse">
							<stop  offset="0" style="stop-color:#5E89C6"/>
							<stop  offset="1" style="stop-color:#265EAC"/>
						</radialGradient>
						<polygon fill="url(#SVGID_32_)" points="72.076,1.259 87.175,87.849 67.058,2.283 						"/>
					</g>
					<g>
						
							<radialGradient id="SVGID_33_" cx="211.7729" cy="212.064" r="86.5561" gradientTransform="matrix(-4.371139e-008 1 -1 -4.371139e-008 299.09 -124.5575)" gradientUnits="userSpaceOnUse">
							<stop  offset="0" style="stop-color:#5E89C6"/>
							<stop  offset="1" style="stop-color:#265EAC"/>
						</radialGradient>
						<polygon fill="url(#SVGID_33_)" points="161.041,132.88 86.34,86.613 158.223,137.156 						"/>
						
							<radialGradient id="SVGID_34_" cx="211.7734" cy="212.0649" r="86.5542" gradientTransform="matrix(-4.371139e-008 1 -1 -4.371139e-008 299.09 -124.5575)" gradientUnits="userSpaceOnUse">
							<stop  offset="0" style="stop-color:#5E89C6"/>
							<stop  offset="1" style="stop-color:#265EAC"/>
						</radialGradient>
						<polygon fill="url(#SVGID_34_)" points="15.809,36.954 87.689,87.499 12.99,41.237 						"/>
					</g>
					<g>
						
							<radialGradient id="SVGID_35_" cx="211.7734" cy="212.0649" r="86.5546" gradientTransform="matrix(-4.371139e-008 1 -1 -4.371139e-008 299.09 -124.5575)" gradientUnits="userSpaceOnUse">
							<stop  offset="0" style="stop-color:#5E89C6"/>
							<stop  offset="1" style="stop-color:#265EAC"/>
						</radialGradient>
						<polygon fill="url(#SVGID_35_)" points="2.283,107.024 87.804,86.896 1.254,102.005 						"/>
						
							<radialGradient id="SVGID_36_" cx="211.7729" cy="212.0649" r="86.5045" gradientTransform="matrix(-4.371139e-008 1 -1 -4.371139e-008 299.09 -124.5575)" gradientUnits="userSpaceOnUse">
							<stop  offset="0" style="stop-color:#5E89C6"/>
							<stop  offset="1" style="stop-color:#265EAC"/>
						</radialGradient>
						<polygon fill="url(#SVGID_36_)" points="172.772,72.109 86.223,87.215 171.751,67.093 						"/>
					</g>
					<g>
						
							<radialGradient id="SVGID_37_" cx="211.7734" cy="212.0649" r="86.5551" gradientTransform="matrix(-4.371139e-008 1 -1 -4.371139e-008 299.09 -124.5575)" gradientUnits="userSpaceOnUse">
							<stop  offset="0" style="stop-color:#5E89C6"/>
							<stop  offset="1" style="stop-color:#265EAC"/>
						</radialGradient>
						<polygon fill="url(#SVGID_37_)" points="41.208,161.118 87.456,86.377 36.938,158.299 						"/>
						
							<radialGradient id="SVGID_38_" cx="211.7729" cy="212.0649" r="86.5563" gradientTransform="matrix(-4.371139e-008 1 -1 -4.371139e-008 299.09 -124.5575)" gradientUnits="userSpaceOnUse">
							<stop  offset="0" style="stop-color:#5E89C6"/>
							<stop  offset="1" style="stop-color:#265EAC"/>
						</radialGradient>
						<polygon fill="url(#SVGID_38_)" points="137.091,15.818 86.568,87.732 132.818,12.995 						"/>
					</g>
				</g>
			</g>
		</g>
		<path fill="#265EAC" d="M70.69,118.536c98.744,1.181,77.78,13.901,61.347,26.847c-15.785,12.426-28.137,17.525-1.202,33.15
			c-11.312,7.903-25.366,12.574-40.573,12.574c-17.501,0-33.443-6.171-45.477-16.326c13.159-31.717,65.596-41.382,75.242-46.019
			C130.138,123.887,83.531,119.155,70.69,118.536"/>
		<path fill="#191D63" d="M70.693,118.402c12.295-0.057,24.6-0.019,36.897,0.677c6.146,0.343,12.297,0.795,18.429,1.6
			c3.064,0.424,6.125,0.938,9.167,1.656c3.025,0.762,6.092,1.581,8.924,3.433c0.695,0.485,1.381,1.053,1.945,1.805
			c0.566,0.742,0.979,1.714,1.041,2.714c0.116,2.047-0.867,3.661-1.805,4.984c-2,2.643-4.425,4.633-6.813,6.618
			c-2.416,1.971-4.811,3.818-7.251,5.731c-2.442,1.896-4.92,3.719-7.303,5.6c-2.35,1.89-4.723,3.842-6.306,6.122
			c-0.771,1.143-1.273,2.353-1.278,3.562c-0.024,1.209,0.462,2.438,1.209,3.59c1.533,2.309,3.885,4.266,6.277,6.041
			c2.423,1.786,5.006,3.391,7.627,4.933l1.664,0.99l-1.578,1.091c-6.458,4.456-13.657,7.808-21.198,9.897
			c-7.539,2.109-15.414,2.966-23.209,2.6c-7.803-0.357-15.549-1.942-22.833-4.761c-7.282-2.805-14.1-6.818-20.043-11.869
			l-0.459-0.396l0.231-0.552c2.39-5.704,6.094-10.774,10.448-15.073c4.359-4.313,9.338-7.923,14.564-11.041
			c10.486-6.246,21.917-10.583,33.438-14.282l8.669-2.705c2.875-0.909,5.815-1.728,8.534-2.895c0.638-0.28,1.366-0.742,1.369-1.109
			c0.028-0.371-0.697-0.881-1.305-1.181c-1.302-0.647-2.756-1.08-4.199-1.48c-2.899-0.78-5.871-1.356-8.841-1.885
			c-5.951-1.033-11.95-1.824-17.956-2.519c-6.006-0.677-12.031-1.281-18.065-1.638l0.015-0.258
			c6.048,0.305,12.078,0.843,18.099,1.457c6.02,0.629,12.033,1.357,18.013,2.333c2.99,0.495,5.977,1.047,8.924,1.81
			c1.471,0.39,2.942,0.804,4.361,1.489c0.35,0.177,0.702,0.377,1.036,0.639c0.31,0.262,0.709,0.628,0.719,1.252
			c-0.033,0.624-0.447,0.971-0.764,1.224c-0.348,0.257-0.702,0.442-1.057,0.609c-2.828,1.247-5.728,2.085-8.608,3.032l-8.632,2.785
			c-11.448,3.81-22.748,8.256-33.048,14.483c-5.127,3.118-9.991,6.708-14.205,10.945c-4.213,4.223-7.744,9.146-9.991,14.635
			l-0.229-0.938c5.837,4.885,12.517,8.741,19.632,11.421c7.115,2.69,14.676,4.176,22.265,4.462
			c7.598,0.285,15.232-0.629,22.515-2.743c7.289-2.1,14.221-5.413,20.403-9.77l0.088,2.071c-2.688-1.547-5.342-3.176-7.884-5.022
			c-2.516-1.866-5.037-3.852-6.944-6.67c-0.926-1.4-1.678-3.128-1.662-5.023c-0.007-1.89,0.776-3.628,1.726-5.008
			c1.959-2.776,4.452-4.728,6.873-6.675c2.447-1.919,4.925-3.729,7.349-5.595l7.263-5.632c2.359-1.895,4.737-3.838,6.482-6.09
			c0.848-1.118,1.495-2.37,1.424-3.451c-0.031-1.066-0.859-2.071-1.99-2.866c-2.304-1.576-5.268-2.476-8.163-3.232
			c-2.931-0.738-5.93-1.281-8.948-1.743c-6.037-0.938-12.141-1.552-18.251-2.047c-12.238-0.924-24.517-1.509-36.802-1.885
			L70.693,118.402z"/>
		<path fill="#191D63" d="M3.656,130.375c0,0.301,0,0.596,0.017,0.891l-1.523-2.152c0.528-0.333,1.041-0.633,1.538-0.89
			C3.673,128.948,3.656,129.652,3.656,130.375z"/>
		<path fill="#191D63" d="M62.961,118.097c-1.238-0.019-2.49-0.033-3.751-0.047C59.676,117.978,61.002,117.993,62.961,118.097z"/>
		<path fill="#191D63" d="M3.688,96.961c5.917-3.805,12.531-6.577,19.438-8.299c6.908-1.676,14.281-2.166,21.408-0.533
			c3.54,0.773,7.02,2.251,10.107,3.992c3.045,1.643,6.139,3.199,9.282,4.608c3.149,1.396,6.358,2.652,9.665,3.538
			c3.304,0.843,6.742,1.456,10.212,0.724c-3.214,1.595-7.054,1.6-10.579,1.118c-3.57-0.5-7.032-1.533-10.36-2.818
			c-3.337-1.283-6.537-2.847-9.65-4.556c-2.992-1.75-6.051-3.012-9.346-3.848c-6.551-1.678-13.549-1.516-20.334-0.307
			C16.732,91.81,10.048,93.986,3.688,96.961z"/>
		<path fill="#191D63" d="M87.013,171.33c-10.915,0.247-21.924-1.699-32.136-5.784c-10.222-4.052-19.651-10.165-27.59-17.868
			c-7.905-7.731-14.269-17.068-18.61-27.285C4.32,110.17,2.03,99.096,1.933,87.916C1.816,76.822,3.906,65.599,8.167,55.27
			c4.218-10.348,10.517-19.848,18.391-27.799c7.87-7.962,17.361-14.321,27.702-18.627c10.338-4.323,21.551-6.546,32.753-6.558
			c11.208,0.009,22.417,2.233,32.76,6.556c10.341,4.306,19.825,10.667,27.702,18.625c7.877,7.951,14.171,17.456,18.394,27.801
			c4.259,10.338,6.358,21.534,6.239,32.672c-0.1,11.133-2.39,22.246-6.746,32.458c-4.344,10.217-10.71,19.549-18.618,27.285
			C130.914,163.145,108.899,171.962,87.013,171.33c10.917-0.238,21.736-2.59,31.682-6.885c9.946-4.309,18.992-10.588,26.483-18.329
			c7.529-7.703,13.542-16.858,17.544-26.813c4.021-9.946,6.013-20.672,5.909-31.363c-0.114-10.696-2.3-21.329-6.418-31.156
			c-4.123-9.827-10.208-18.808-17.766-26.292c-7.548-7.491-16.542-13.528-26.368-17.57c-9.817-4.066-20.439-6.132-31.065-6.12
			c-10.622-0.019-21.243,2.05-31.06,6.115c-9.829,4.044-18.818,10.086-26.371,17.573c-7.561,7.482-13.645,16.463-17.768,26.295
			c-4.118,9.833-6.313,20.438-6.42,31.177c-0.107,10.648,1.888,21.405,5.908,31.347c4.002,9.955,10.02,19.105,17.546,26.813
			c7.496,7.741,16.535,14.025,26.485,18.324C65.28,168.745,76.101,171.091,87.013,171.33z"/>
		<path fill="#191D63" d="M98.335,129.062c-9.298,2.009-18.292,5.17-26.911,9.018c-8.618,3.87-16.856,8.55-24.421,14.092
			c-7.565,5.532-14.435,11.94-20.232,19.144c-2.337,2.895-4.508,5.923-6.463,9.079c-1.3-1.714-2.506-3.471-3.664-5.279
			c1.885-2.528,3.902-4.976,6.04-7.299c6.599-7.218,14.178-13.393,22.3-18.597c8.12-5.198,16.796-9.436,25.747-12.797
			C79.696,133.084,88.917,130.486,98.335,129.062z"/>
		<path fill="#191D63" d="M80.598,126.096c-7.458,1.176-14.733,3.209-21.784,5.756c-7.054,2.565-13.864,5.731-20.234,9.56
			c-6.373,3.823-12.309,8.322-17.494,13.507c-3.478,3.48-6.627,7.284-9.338,11.336c-0.947-1.99-1.823-4.014-2.606-6.094
			c2.666-3.147,5.587-6.075,8.674-8.756c5.877-5.094,12.386-9.331,19.213-12.797c6.839-3.462,13.995-6.194,21.289-8.274
			C65.625,128.267,73.081,126.734,80.598,126.096z"/>
		<path fill="#191D63" d="M67.22,122.33c-6.07,0.348-12.064,1.429-17.927,2.938c-5.844,1.533-11.541,3.557-16.952,6.118
			c-5.422,2.562-10.548,5.661-15.216,9.288c-4.006,3.104-7.656,6.6-10.879,10.446c-0.559-2.186-1.026-4.418-1.402-6.68
			c3.033-2.762,6.253-5.242,9.66-7.461c5.256-3.418,10.862-6.193,16.666-8.364c5.782-2.186,11.762-3.767,17.806-4.823
			C55.02,122.768,61.133,122.164,67.22,122.33z"/>
		<path fill="#191D63" d="M72.028,118.74c-11.738-0.647-23.536,0.091-34.893,2.519c-5.68,1.219-11.243,2.861-16.589,4.976
			c-2.683,1.052-5.301,2.232-7.82,3.528c-1.264,0.647-2.516,1.328-3.721,2.052c-1.179,0.704-2.442,1.504-3.39,2.228l-1.942-2.756
			v-0.02c-0.017-0.295-0.017-0.59-0.017-0.891c0-0.724,0.017-1.428,0.031-2.151c0,0,0,0,0-0.015
			c0.888-0.505,1.745-0.938,2.651-1.371c1.369-0.681,2.771-1.3,4.168-1.871c2.823-1.161,5.668-2.151,8.563-3.014
			c5.768-1.719,11.646-2.909,17.551-3.666C48.464,116.797,60.378,117.097,72.028,118.74z"/>
		<path fill="#191D63" d="M49.775,118.816c3.885-4.004,8.501-7.322,13.574-9.831c1.273-0.624,2.587-1.166,3.939-1.618
			c1.345-0.453,2.6-0.9,3.864-1.434c2.516-1.062,4.946-2.304,7.27-3.732c4.646-2.881,8.972-6.299,13.238-9.846l3.24-2.651
			c1.135-0.897,2.312-1.741,3.54-2.514c2.457-1.547,5.142-2.809,7.999-3.563c2.847-0.767,5.832-1.033,8.753-0.829
			c2.928,0.2,5.777,0.895,8.496,1.819c2.728,0.926,5.301,2.183,7.789,3.439c2.5,1.259,4.971,2.564,7.425,3.895
			c9.793,5.355,19.373,11.06,28.801,17.011c-9.917-5.08-19.81-10.205-29.775-15.126c-2.49-1.235-4.987-2.447-7.501-3.602
			c-2.525-1.159-5.008-2.273-7.577-3.066c-5.125-1.607-10.572-2.109-15.63-0.669c-2.521,0.712-4.939,1.821-7.206,3.213
			c-1.136,0.697-2.235,1.469-3.29,2.288l-3.249,2.602c-4.397,3.433-8.879,6.903-13.876,9.622c-2.488,1.361-5.075,2.575-7.77,3.485
			c-1.335,0.466-2.735,0.856-4.056,1.214c-1.305,0.371-2.597,0.813-3.873,1.313C58.8,112.265,54.07,115.284,49.775,118.816z"/>
		<g>
			<path fill="#101235" d="M4.125,96.718c0.156,0.47,0.138,0.604,0.081,0.659c-0.079,0.023-0.196-0.036-0.517-0.416
				c-0.177-0.465-0.149-0.606-0.083-0.664C3.694,96.272,3.823,96.328,4.125,96.718z"/>
		</g>
	</g>
</g>
<path fill="none" d="M168.63,87.939c-0.114-10.691-2.297-21.325-6.392-31.163c-4.106-9.836-10.179-18.836-17.73-26.342
	c-7.548-7.51-16.575-13.519-26.409-17.558c-9.843-4.054-20.429-6.102-31.11-6.075c-10.567-0.036-21.236,2.016-31.056,6.068
	C46.1,16.906,37.073,22.917,29.525,30.427c-7.553,7.506-13.624,16.506-17.73,26.343c-4.094,9.848-6.289,20.45-6.401,31.187
	c-0.107,10.65,1.888,21.41,5.908,31.351c1.769,4.398,3.952,8.631,6.465,12.664c14.588,22.881,40.164,38.102,69.246,38.102
	c28.937,0,54.406-15.068,69.031-37.759c2.604-4.133,4.861-8.484,6.68-13.007C166.745,109.356,168.74,98.632,168.63,87.939z"/>
<path fill="#191D63" d="M172.11,87.939c0.395-22.338-8.876-44.599-24.69-60.414c-7.879-7.937-17.33-14.319-27.664-18.639
	c-10.317-4.333-21.56-6.58-32.71-6.599C75.785,2.316,64.623,4.554,54.282,8.886c-10.333,4.32-19.784,10.703-27.661,18.637
	C10.8,43.327,1.54,65.62,1.933,87.913c0.074,18.696,6.666,37.107,18.106,51.666c15.487,20.058,39.74,33.013,66.975,33.013
	c27.716,0,52.361-13.402,67.806-34.064c4.239-5.57,7.796-11.669,10.543-18.125C169.718,110.185,172.01,99.078,172.11,87.939z
	 M87.013,170.073c-29.082,0-54.658-15.221-69.246-38.102c-2.514-4.033-4.696-8.266-6.465-12.664
	c-4.021-9.941-6.015-20.701-5.908-31.351C5.506,77.22,7.701,66.617,11.795,56.77c4.106-9.836,10.177-18.837,17.73-26.343
	c7.548-7.51,16.575-13.521,26.409-17.558c9.819-4.052,20.488-6.104,31.056-6.068c10.681-0.026,21.267,2.021,31.11,6.075
	c9.833,4.04,18.86,10.048,26.409,17.558c7.551,7.506,13.624,16.506,17.73,26.342c4.094,9.838,6.277,20.472,6.392,31.163
	c0.109,10.693-1.886,21.417-5.906,31.368c-1.818,4.522-4.075,8.874-6.68,13.007C141.419,155.004,115.95,170.073,87.013,170.073z"/>
<path fill="#191D63" d="M265.72,52.296c0.891,0.709,1.722,1.438,2.505,2.171c0.773,0.729,1.54,1.542,2.295,2.436
	c3.689,4.218,6.425,9.303,8.205,15.261h-5.135c-2.633-7.691-6.93-13.514-12.897-17.466c-1.873-1.2-3.899-2.242-6.082-3.135h-9.753
	v20.601h-4.937V25.492h2.399h2.537h15.359c1.159,0,2.315,0,3.476,0c1.161,0,2.313,0.045,3.471,0.136
	c0.359,0.048,0.692,0.079,1.004,0.1c0.314,0.024,0.647,0.079,1.003,0.167c0.978,0.224,1.926,0.524,2.84,0.902
	c0.911,0.374,1.723,0.874,2.439,1.497c0.891,0.755,1.657,1.6,2.302,2.535c0.647,0.933,1.147,1.955,1.505,3.066
	c0.399,1.285,0.6,2.645,0.6,4.066c0,1.866-0.29,3.621-0.866,5.268c-0.576,1.645-1.455,3.066-2.633,4.269
	c-1.176,1.195-2.647,2.168-4.401,2.899c-1.757,0.73-3.812,1.121-6.168,1.166c0.179,0.133,0.336,0.255,0.467,0.367
	C265.39,52.039,265.544,52.163,265.72,52.296z M244.857,46.495h8.951h10.957c3.211,0,5.53-0.764,6.951-2.299
	c1.426-1.536,2.14-3.457,2.14-5.768c0-2.352-0.747-4.278-2.24-5.768c-1.494-1.488-3.844-2.233-7.051-2.233h-10.757h-8.951V46.495z"
	/>
<path fill="#191D63" d="M216.138,51.556c2.345-0.045,4.413-0.433,6.16-1.169c1.747-0.712,3.221-1.702,4.392-2.897
	c1.195-1.2,2.071-2.624,2.646-4.251c0.573-1.657,0.876-3.404,0.876-5.263c0-1.428-0.207-2.78-0.598-4.073
	c-0.371-1.124-0.876-2.14-1.521-3.08c-0.645-0.919-1.402-1.773-2.297-2.528c-0.714-0.624-1.517-1.126-2.436-1.497
	c-0.924-0.391-1.863-0.69-2.854-0.893c-0.348-0.093-0.686-0.165-0.988-0.186c-0.321-0.021-0.643-0.042-1.01-0.09
	c-1.149-0.093-2.302-0.141-3.473-0.141h-23.774v46.669h4.944V51.556h9.748H216.138z M223.058,44.203
	c-1.422,1.514-3.747,2.3-6.941,2.3h-19.911V30.432h19.706c3.219,0,5.561,0.736,7.056,2.228c1.495,1.493,2.23,3.404,2.23,5.773
	C225.197,40.729,224.485,42.66,223.058,44.203z"/>
<path fill="#191D63" d="M291.929,72.097V25.43h4.863v46.667H291.929z"/>
<path fill="#191D63" d="M341.086,27.094c3.113,1.107,5.756,2.678,7.937,4.702c2.176,2.026,3.854,4.475,5.034,7.367
	c1.177,2.888,1.765,6.087,1.765,9.603c0,3.554-0.579,6.761-1.733,9.631c-1.157,2.866-2.823,5.311-5.001,7.334
	c-2.179,2.023-4.835,3.59-7.965,4.699c-3.136,1.107-6.656,1.667-10.567,1.667h-11.336h-6.601V25.43h6.601h11.336
	C334.466,25.43,337.977,25.982,341.086,27.094z M339.589,65.865c2.557-0.912,4.678-2.178,6.365-3.799
	c1.69-1.624,2.944-3.571,3.769-5.837c0.821-2.269,1.232-4.754,1.232-7.463c0-2.716-0.411-5.194-1.232-7.434
	c-0.824-2.247-2.078-4.178-3.769-5.804c-1.688-1.619-3.809-2.89-6.365-3.797c-2.557-0.914-5.568-1.371-9.034-1.371h-6.067h-7.001
	v36.869h7.001h6.067C334.021,67.229,337.032,66.774,339.589,65.865z"/>
<path fill="#191D63" d="M374.531,30.293v16.259h27.204v4.868h-27.204v15.683h32.139v4.93h-37.002V25.43h37.002v4.863H374.531z"/>
<path fill="#191D63" d="M213.848,149.515h-3.292c0-10.289-1.231-19.872-1.995-24.814l-12.088,14.331l-12.066-14.331
	c-0.774,4.942-2.021,14.55-2.021,24.814h-3.29c0-15.098,2.63-28.785,2.652-28.913l0.067-0.286h3.204l11.455,13.603l11.453-13.603
	h3.202l0.064,0.286C211.214,120.73,213.848,134.417,213.848,149.515z"/>
<path fill="#191D63" d="M225.295,123.42v10.007h17.006v3.043h-17.006v9.964h20.089v3.086h-23.131v-29.138h23.131v3.038H225.295z"/>
<path fill="#191D63" d="M275.304,140.931l0.503,2.456c0.156,0.967,0.267,1.972,0.333,2.985c0.086,1.01,0.131,2.081,0.131,3.181
	h3.049c0-4.409-0.638-8.599-1.888-12.569c-0.48-1.609-1.075-3.113-1.752-4.589c-0.683-1.49-1.471-2.896-2.37-4.257
	c-0.748-1.161-1.472-2.194-2.195-3.047c-0.7-0.861-1.338-1.581-1.909-2.176c-0.571-0.571-1.033-1.005-1.402-1.314
	c-0.352-0.29-0.552-0.438-0.573-0.461l-0.879-0.677l-0.921,0.634c-0.021,0.019-0.219,0.176-0.569,0.462
	c-0.373,0.262-0.833,0.676-1.423,1.247c-0.598,0.552-1.233,1.252-1.957,2.104c-0.722,0.838-1.466,1.847-2.211,3.009
	c-1.762,2.676-3.141,5.618-4.131,8.841c-1.226,3.999-1.84,8.27-1.84,12.793h3.052c0-1.1,0.04-2.171,0.131-3.181
	c0.064-1.014,0.197-2.019,0.328-2.985l0.44-2.456H275.304z M258.041,137.855c0.393-1.361,0.828-2.585,1.333-3.68
	c0.79-1.738,1.58-3.229,2.395-4.456c0.857-1.362,1.686-2.48,2.521-3.356c0.813-0.876,1.469-1.558,1.977-2.019
	c0.507,0.461,1.161,1.161,1.954,2.061c0.81,0.9,1.666,2.038,2.545,3.399c0.788,1.253,1.575,2.743,2.393,4.476
	c0.476,1.081,0.939,2.28,1.335,3.575H258.041z"/>
<path fill="#191D63" d="M304.874,121.42c1.945,0.695,3.597,1.676,4.959,2.942c1.359,1.262,2.411,2.795,3.149,4.604
	c0.735,1.805,1.104,3.81,1.104,6.004c0,2.224-0.364,4.232-1.086,6.027c-0.724,1.79-1.767,3.318-3.125,4.585
	c-1.362,1.262-3.021,2.247-4.982,2.938c-1.957,0.69-4.161,1.043-6.608,1.043h-7.082h-4.133v-29.181h4.133h7.082
	C300.732,120.382,302.93,120.725,304.874,121.42z M303.934,145.664c1.598-0.571,2.929-1.362,3.982-2.376
	c1.058-1.014,1.841-2.232,2.353-3.646c0.519-1.414,0.773-2.976,0.773-4.671s-0.255-3.242-0.773-4.646
	c-0.512-1.404-1.295-2.609-2.353-3.623c-1.054-1.02-2.385-1.81-3.982-2.381c-1.597-0.566-3.482-0.856-5.648-0.856h-3.795h-4.375
	v23.057h4.375h3.795C300.451,146.52,302.337,146.235,303.934,145.664z"/>
<path fill="#191D63" d="M352.512,134.927c0,1.724-0.283,3.381-0.854,4.966c-0.568,1.581-1.396,3.042-2.482,4.375
	c-0.724,0.914-1.543,1.733-2.457,2.457c-0.919,0.724-1.904,1.352-2.956,1.876c-0.114,0.057-0.227,0.104-0.336,0.147
	c-0.111,0.043-0.224,0.09-0.336,0.147c-1.666,0.695-3.403,1.109-5.21,1.247h-0.041c-0.06,0-0.111,0.01-0.169,0.024
	c-0.055,0.014-0.112,0.019-0.167,0.019h-0.121h-0.25h-0.336h-0.08h-0.129h-0.29h-0.293h-0.126c-0.056,0-0.11-0.005-0.165-0.019
	c-0.057-0.015-0.111-0.024-0.169-0.024h-0.043c-0.828-0.052-1.654-0.171-2.456-0.352c-0.808-0.187-1.6-0.424-2.376-0.733
	c-0.057-0.024-0.112-0.058-0.167-0.081c-0.057-0.028-0.111-0.053-0.166-0.081h-0.043c-0.114-0.058-0.217-0.104-0.314-0.147
	c-0.095-0.043-0.212-0.091-0.35-0.147c-1.06-0.524-2.048-1.152-2.964-1.876c-0.914-0.724-1.733-1.543-2.459-2.457
	c-1.055-1.333-1.869-2.794-2.438-4.375c-0.569-1.585-0.854-3.242-0.854-4.966c0-1.833,0.313-3.585,0.936-5.251
	c0.626-1.671,1.55-3.195,2.773-4.585c0.724-0.861,1.54-1.619,2.435-2.275c0.907-0.652,1.859-1.215,2.861-1.686h0.041
	c0-0.028,0.017-0.038,0.043-0.038c0.025-0.028,0.052-0.048,0.085-0.048c0.024,0,0.067-0.01,0.124-0.038
	c0.026-0.028,0.055-0.043,0.081-0.043c0.028,0,0.055-0.014,0.083-0.043c0.026,0,0.048-0.005,0.06-0.023
	c0.02-0.01,0.038-0.015,0.066-0.015c0.055-0.028,0.103-0.048,0.144-0.066c0.043-0.015,0.09-0.033,0.147-0.058l0.086-0.047
	c0.104-0.053,0.204-0.076,0.29-0.076c0.026-0.033,0.057-0.048,0.083-0.048c0.167-0.058,0.278-0.096,0.331-0.124h0.048
	c0.336-0.109,0.661-0.214,0.995-0.314c0.335-0.1,0.681-0.171,1.042-0.229h0.086c0.055-0.028,0.093-0.038,0.124-0.038
	c0.055,0,0.114-0.019,0.167-0.042h0.169c0.055,0,0.093-0.01,0.123-0.024c0.026-0.01,0.064-0.019,0.124-0.019h0.164
	c0.06-0.029,0.127-0.043,0.212-0.043h0.207c0.055-0.028,0.129-0.038,0.21-0.038h0.212c0.055-0.033,0.121-0.048,0.202-0.048h0.21
	h0.171h0.248c0.143,0,0.232-0.01,0.29-0.038h0.129h0.123c0.058,0.028,0.136,0.038,0.248,0.038h0.247h0.169h0.253
	c0.083,0,0.136,0.015,0.169,0.048h0.247c0.081,0,0.136,0.01,0.167,0.038h0.209c0.107,0,0.179,0.014,0.208,0.043h0.207
	c0.057,0,0.095,0.009,0.126,0.019c0.023,0.015,0.069,0.024,0.121,0.024h0.126c0.058,0.023,0.112,0.042,0.169,0.042
	c0.053,0,0.112,0.01,0.167,0.038h0.083c0.279,0.058,0.55,0.119,0.813,0.187c0.267,0.071,0.535,0.143,0.813,0.232l0.376,0.124h0.041
	l0.376,0.124l0.043,0.048c0.083,0,0.179,0.023,0.29,0.076c0.026,0.033,0.069,0.047,0.126,0.047c0.11,0.053,0.193,0.081,0.248,0.081
	c0.057,0.053,0.114,0.081,0.169,0.081l0.169,0.086l0.081,0.038c0.028,0,0.069,0.02,0.126,0.048l0.041,0.038
	c0.999,0.471,1.951,1.033,2.856,1.686c0.897,0.656,1.732,1.414,2.48,2.275h-0.043c1.219,1.39,2.151,2.914,2.795,4.585
	C352.193,131.342,352.512,133.094,352.512,134.927z M337.334,147.101c1.697-0.086,3.285-0.457,4.757-1.128
	c1.474-0.662,2.749-1.548,3.832-2.643c1.086-1.1,1.942-2.361,2.566-3.795c0.628-1.433,0.94-2.966,0.94-4.608
	c0-1.638-0.313-3.181-0.94-4.628c-0.624-1.442-1.48-2.713-2.566-3.813c-1.083-1.1-2.358-1.98-3.832-2.646
	c-1.472-0.667-3.06-1.038-4.757-1.129h-0.29h-0.169h-0.159h-0.212h-0.124h-0.291h-0.04c-1.671,0.091-3.242,0.462-4.713,1.129
	c-1.472,0.666-2.76,1.547-3.854,2.646c-1.104,1.101-1.959,2.371-2.585,3.813c-0.624,1.447-0.938,2.99-0.938,4.628
	c0,1.643,0.314,3.176,0.938,4.608c0.626,1.434,1.48,2.695,2.585,3.795c1.095,1.095,2.383,1.98,3.854,2.643
	c1.471,0.671,3.042,1.042,4.713,1.128h0.04c0.056,0,0.103,0.01,0.146,0.02c0.041,0.019,0.091,0.028,0.146,0.028h0.207h0.129h0.123
	h0.205c0.055,0,0.109-0.01,0.146-0.028C337.234,147.111,337.279,147.101,337.334,147.101z"/>
<path fill="#191D63" d="M359.229,120.316h3.293c0,10.284,1.228,19.877,1.994,24.814l12.088-14.331l12.072,14.331
	c0.766-4.938,2.016-14.55,2.016-24.814h3.29c0,15.097-2.628,28.785-2.651,28.913l-0.069,0.286h-3.199l-11.458-13.603l-11.452,13.603
	h-3.201l-0.064-0.286C361.862,149.101,359.229,135.413,359.229,120.316z"/>
<path fill="#191D63" d="M412.276,151.424c-6.837,0-11.588-6.661-11.816-6.979l2.694-1.891c0.05,0.071,5.092,7.094,11.257,5.266
	c2.821-0.828,4.764-2.976,4.726-5.213c-0.045-2.823-3.121-5.299-8.215-6.618c-8.672-2.247-9.039-6.951-8.791-8.864
	c0.505-3.985,4.718-7.356,9.203-7.356c7.791,0,10.214,5.909,10.316,6.161l-3.063,1.209l1.53-0.604l-1.521,0.619
	c-0.069-0.172-1.769-4.09-7.263-4.09c-2.762,0-5.649,2.176-5.942,4.476c-0.28,2.228,2.038,4.142,6.352,5.266
	c9.541,2.466,10.652,7.641,10.686,9.75c0.064,3.766-2.787,7.156-7.086,8.422C414.283,151.286,413.257,151.424,412.276,151.424z"/>
<path fill="#191D63" d="M244.239,105.423c-1.621-0.895-2.888-2.113-3.795-3.665c-0.909-1.553-1.366-3.302-1.366-5.235
	c0-1.933,0.457-3.675,1.366-5.228c0.907-1.554,2.174-2.775,3.795-3.666c1.613-0.888,3.418-1.335,5.413-1.335
	c1.994,0,3.789,0.443,5.389,1.319c1.6,0.883,2.861,2.107,3.778,3.668c0.921,1.563,1.383,3.309,1.383,5.241
	c0,1.934-0.462,3.688-1.383,5.244c-0.917,1.566-2.179,2.79-3.778,3.666c-1.6,0.881-3.395,1.324-5.389,1.324
	C247.657,106.757,245.853,106.314,244.239,105.423z M253.966,103.782c1.28-0.72,2.287-1.715,3.016-2.985
	c0.726-1.276,1.09-2.702,1.09-4.273s-0.364-2.992-1.09-4.266c-0.729-1.273-1.735-2.271-3.016-2.99
	c-1.286-0.716-2.724-1.076-4.313-1.076c-1.591,0-3.03,0.36-4.323,1.076c-1.29,0.72-2.31,1.717-3.047,2.99
	c-0.738,1.273-1.107,2.694-1.107,4.266s0.369,2.997,1.107,4.273c0.737,1.271,1.757,2.266,3.047,2.985
	c1.293,0.719,2.732,1.08,4.323,1.08C251.242,104.862,252.68,104.5,253.966,103.782z"/>
<path fill="#191D63" d="M267.096,88.306v7.903h10.405v1.838h-10.405v8.539h-2.125V86.468h13.795v1.837H267.096z"/>
<path fill="#191D63" d="M294.596,88.306h-7.065v-1.837h16.263v1.837h-7.069v18.28h-2.128V88.306z"/>
<path fill="#191D63" d="M323.994,86.468v20.117h-2.095v-9.284h-12.588v9.284h-2.128V86.468h2.128v8.967h12.588v-8.967H323.994z"/>
<path fill="#191D63" d="M344.773,104.743v1.843H330.55V86.468h13.793v1.837h-11.667v7.159h10.405v1.807h-10.405v7.472H344.773z"/>
</svg>
