<?xml version="1.0" encoding="UTF-8"?>
<svg width="60px" height="64px" viewBox="0 0 60 64" version="1.1" xmlns="http://www.w3.org/2000/svg" xmlns:xlink="http://www.w3.org/1999/xlink">
    <!-- Generator: Sketch 48.2 (47327) - http://www.bohemiancoding.com/sketch -->
    <title>Bell Pepper Icon</title>
    <desc>Created with Sketch.</desc>
    <defs></defs>
    <g id="Symbols" stroke="none" stroke-width="1" fill="none" fill-rule="evenodd">
        <g id="Bell-Pepper-Icon">
            <g>
                <path d="M47.8509192,16.961254 C47.0200528,16.663684 46.178524,16.6170779 45.3689825,16.7174672 C45.3226255,16.6744452 45.2905323,16.6242551 45.237044,16.5919852 C42.9797669,15.2045426 40.8651729,14.7599589 38.9645579,15.2619053 C36.8142703,15.828364 35.65893,17.4381077 35.3594143,17.9149062 C32.6456975,17.9400027 29.9998076,18.6175945 28.9300042,18.9295373 C28.6910854,18.7431132 28.3451953,18.4957286 27.8958943,18.2160924 C28.3559034,16.3410212 31.5723338,4.30587222 38.8002396,1.97924195 C39.2031937,2.65325802 39.7095497,3.71444005 39.7488126,4.67528787 C38.3366794,5.70423666 33.8828317,9.45428739 34.4997557,15.5668545 C34.5496783,16.0723619 34.9811535,16.4344627 35.5018235,16.3878567 C36.0046192,16.3376639 36.3683469,15.8859286 36.3184215,15.3803845 C35.715775,9.44330129 40.9077405,6.09130166 41.1252797,5.95179563 C41.3641985,5.80122089 41.5175348,5.55384548 41.5496226,5.27420013 C41.8099393,2.92590972 40.002018,0.470052813 39.9236017,0.36964518 C39.7060807,0.0756637439 39.3352234,-0.0605749134 38.9822403,0.0254691052 C32.7204349,1.52047819 29.1149262,8.80553843 27.3713264,13.6566773 C24.1691278,12.8679358 21.7834999,14.821828 20.9776099,15.6105878 C20.7529594,15.5639808 20.5496976,15.5102077 20.3143482,15.4671811 C19.7794556,15.366801 19.2659974,15.334531 18.7667436,15.3560443 C15.9282362,14.5171174 10.1550038,14.2052113 8.06505758,18.9053716 C4.29942977,27.3771509 6.47107874,35.9278613 8.38955885,43.471283 C9.98353769,49.7488711 13.050265,57.797268 18.5992028,60.4901016 C18.7275719,60.5510492 18.8630798,60.5833136 18.9950182,60.5833136 C19.0663369,60.5833136 19.1340863,60.5689739 19.2018402,60.5546323 C20.653136,62.2288883 22.6464996,63.6701141 25.3138421,63.86735 C26.347952,63.9426382 27.3713812,64 28.3734489,64 C32.0606604,64 35.4375841,63.2363605 37.9048235,59.9165115 C37.9618784,59.9272672 38.0153641,59.9523627 38.0795577,59.9523627 L38.0973872,59.9523627 C43.0611693,59.8663187 47.2471781,57.2706345 49.5795851,52.8322316 C51.0951476,49.9533594 51.4374774,46.7410494 51.7690353,43.6330935 C51.8546177,42.8120913 51.9437695,41.9946319 52.0543101,41.1879749 C52.2468729,39.7574874 52.4429959,38.3269998 52.6426883,36.8965123 C52.995717,34.3151917 53.352306,31.7338712 53.6874789,29.1489712 C54.4327628,23.3768172 51.2698089,18.1922406 47.8500711,16.9633025 L47.8509192,16.961254 Z M39.4281454,17.0365423 C40.4764962,16.764065 41.6461687,16.9003036 42.9227393,17.4488377 C41.6782108,18.0296325 40.7368495,18.7538616 40.3980799,19.0335161 C39.5743522,18.5351767 38.615135,18.2340272 37.6023865,18.0726683 C38.0302988,17.6747182 38.6293759,17.2480775 39.4281454,17.0365606 L39.4281454,17.0365423 Z M26.7802004,15.4089107 C26.534152,16.2012315 26.3522882,16.8572954 26.2310486,17.3269351 C25.4001823,16.9325644 24.3874885,16.5381937 23.1964547,16.1761021 C24.03802,15.627568 25.2932476,15.1076878 26.7802369,15.408874 L26.7802004,15.4089107 Z M51.8734312,28.9033662 C51.538231,31.4846868 51.1852023,34.0588485 50.8286407,36.6365896 C50.6325177,38.0706566 50.4363855,39.5011441 50.2402625,40.9316317 C50.1297219,41.7562225 50.0405701,42.5879905 49.9478581,43.4269541 C49.6340557,46.363189 49.3095545,49.3962521 47.9580547,51.963255 C46.1038139,55.4911056 42.8872831,57.6457396 39.0503594,58.0258018 C39.1929968,57.7461564 39.3320649,57.459343 39.4675727,57.1510255 C41.1150463,53.375827 42.0136848,49.8659653 42.2133316,46.4237456 C42.2418591,45.9182382 41.8603028,45.4844662 41.3575071,45.455739 C40.8618409,45.4342275 40.4232662,45.8106717 40.3946931,46.3161792 C40.2056997,49.535648 39.357023,52.8376274 37.7986465,56.4120107 C35.2454139,62.2630039 30.8843148,62.4243537 25.4501259,62.0228149 C20.0691579,61.6284442 17.815441,54.3828403 17.7940797,54.3111599 C17.6478729,53.8271657 17.1415169,53.5546884 16.6565405,53.6980951 C16.1751427,53.8450904 15.9005668,54.3577659 16.0467644,54.8417693 C16.0788585,54.952906 16.3676964,55.8742975 16.9560746,57.0824932 C13.5149754,53.7877645 11.3931696,47.8503142 10.1629733,43.0070685 C8.31941319,35.7543149 6.2297408,27.53383 9.73863038,19.6425609 C10.8475964,17.1472385 13.3224126,16.6310662 15.3335774,16.6775988 C11.7819285,19.6174131 11.3504104,26.4292542 11.3326092,26.7192799 C11.3040817,27.2247874 11.6891982,27.6585594 12.1920031,27.6872866 C12.6947988,27.7052122 13.1262439,27.3287744 13.1548171,26.8232578 C13.1583837,26.7587252 13.5542018,20.4022172 16.5674344,18.0252913 C17.5302484,17.2652404 18.649895,17.0142397 19.9836119,17.2616518 C25.607132,18.3049183 28.0711763,20.5851078 28.0925377,20.6030049 C28.3350167,20.8396237 28.6880455,20.9184996 29.0089774,20.8145309 C29.0802961,20.7930195 36.1159266,18.5128649 39.4924852,20.6101729 C43.7466861,23.2524356 42.049278,31.3007407 41.4252336,33.7072198 C41.3004247,34.1983912 41.5892689,34.7002825 42.0777964,34.825838 C42.1562474,34.8473494 42.2311327,34.8545193 42.3095856,34.8545193 C42.7160999,34.8545193 43.0869572,34.5820512 43.1939376,34.1661672 C43.9998367,31.0506853 45.2978509,23.9702951 41.8424195,20.2164814 C42.7588592,19.5281293 45.1873012,17.9398714 47.24128,18.6748479 C49.9264237,19.6535929 52.4796562,24.2282895 51.873413,28.9037609 L51.8734312,28.9033662 Z" id="Shape" fill="#67BE4D" fill-rule="nonzero"></path>
                <rect id="Rectangle-3" x="0" y="0" width="60" height="64"></rect>
            </g>
        </g>
    </g>
</svg>