<?xml version="1.0" encoding="utf-8"?>
<!-- Generator: Adobe Illustrator 15.0.0, SVG Export Plug-In  -->
<!DOCTYPE svg PUBLIC "-//W3C//DTD SVG 1.1//EN" "http://www.w3.org/Graphics/SVG/1.1/DTD/svg11.dtd" [
	<!ENTITY ns_flows "http://ns.adobe.com/Flows/1.0/">
]>
<svg version="1.1"
	 xmlns="http://www.w3.org/2000/svg" xmlns:xlink="http://www.w3.org/1999/xlink" xmlns:a="http://ns.adobe.com/AdobeSVGViewerExtensions/3.0/"
	 x="0px" y="0px" width="119px" height="119px" viewBox="-5.934 -4.503 119 119" enable-background="new -5.934 -4.503 119 119"
	 xml:space="preserve">
<defs>
</defs>
<circle fill="#FFFFFF" cx="54.212" cy="56.091" r="47.256"/>
<path fill="#F8971D" d="M54.216,0C63.97,0,73.01,2.442,81.323,7.326c8.299,4.877,14.897,11.468,19.774,19.782
	c4.892,8.306,7.326,17.339,7.326,27.101c0,9.768-2.435,18.802-7.326,27.115c-4.877,8.299-11.476,14.897-19.774,19.781
	c-8.313,4.885-17.354,7.319-27.107,7.319c-9.775,0-18.81-2.435-27.108-7.319c-8.313-4.884-14.911-11.482-19.788-19.781
	C2.442,73.01,0,63.977,0,54.208c0-9.761,2.442-18.795,7.319-27.101c4.877-8.313,11.476-14.905,19.788-19.782
	C35.406,2.442,44.44,0,54.216,0z M54.216,10.496c-7.874,0-15.157,1.959-21.864,5.9c-6.706,3.926-12.022,9.257-15.963,15.956
	c-3.934,6.7-5.893,13.99-5.893,21.856c0,7.874,1.959,15.157,5.893,21.871c3.94,6.699,9.257,12.016,15.963,15.949
	c6.707,3.94,13.99,5.907,21.864,5.907c7.866,0,15.156-1.967,21.855-5.907c6.707-3.934,12.023-9.25,15.957-15.949
	c3.933-6.714,5.906-13.997,5.906-21.871c0-7.867-1.974-15.157-5.906-21.856c-3.934-6.699-9.25-12.03-15.957-15.956
	C69.372,12.455,62.082,10.496,54.216,10.496z M84.817,38.908c0.583,0.59,0.871,1.239,0.871,1.974c0,0.72-0.288,1.311-0.871,1.743
	L47.221,80.013c-0.584,0.576-1.246,0.871-1.974,0.871s-1.312-0.295-1.751-0.871l-19.89-19.897c-0.583-0.576-0.871-1.239-0.871-1.966
	s0.288-1.311,0.871-1.75l5.028-5.028c0.439-0.439,1.016-0.656,1.751-0.656c0.728,0,1.383,0.216,1.966,0.656l12.896,13.341
	l31.041-30.825c0.439-0.439,1.022-0.656,1.75-0.656s1.383,0.288,1.967,0.872L84.817,38.908z"/>
</svg>
