<?xml version="1.0" encoding="UTF-8"?>
<svg width="62px" height="66px" viewBox="0 0 62 66" version="1.1" xmlns="http://www.w3.org/2000/svg" xmlns:xlink="http://www.w3.org/1999/xlink">
    <!-- Generator: Sketch 48.2 (47327) - http://www.bohemiancoding.com/sketch -->
    <title>Jalapeno Icon</title>
    <desc>Created with Sketch.</desc>
    <defs></defs>
    <g id="Jalapeno-Icon" stroke="none" stroke-width="1" fill="none" fill-rule="evenodd" transform="translate(1.000000, 1.000000)">
        <g fill="#67C04C" fill-rule="nonzero" id="Shape" stroke="#67BE4D" stroke-width="0.5">
            <path d="M55.5262789,17.5639371 C57.668535,15.1365838 60.593827,7.17233062 59.8232405,3.29739668 C59.711017,2.40248212 59.2097463,1.60004122 58.4516348,1.11252269 C58.0625875,0.47756469 57.3917112,0.0651066099 56.6510671,0.00507873144 C56.0276007,-0.0449178358 55.4340894,0.277559223 55.1347929,0.824990436 C54.9477517,1.23246326 54.8878987,1.91240377 55.6934202,2.87732952 C55.6934202,2.87732952 56.1722437,3.49728695 55.8854476,4.95718672 C55.8854476,5.04468151 54.6559567,13.5089195 49.7604658,16.443758 C48.1993099,17.2762129 46.4785461,17.7561799 44.7129006,17.8511494 L42.2514289,17.9436423 C38.6079018,17.5411675 34.9994883,18.9560527 32.5951562,21.7309022 C30.2733733,24.3982391 28.1336071,27.0630161 26.243276,29.3777372 C23.649649,32.57003 21.5871968,35.089857 20.6495328,35.7971364 C12.5446481,41.8342259 1.59874422,50.7209118 0.0824699928,58.1879191 C-0.256696611,59.8603162 0.454056136,61.2801867 2.14492216,62.3001487 C4.04029687,63.4275593 6.99304142,64 10.5894524,64 C13.5297475,63.9725017 16.4575294,63.6575211 19.3353221,63.0600325 C27.7070711,61.3726604 35.5757364,57.7279186 41.4882482,52.8808914 C56.052142,40.8817153 55.6212009,34.0098671 53.6707934,26.9229937 L52.8004201,24.2556569 C52.5884417,23.6307014 52.5884417,22.9507225 52.8004201,22.3233095 C53.391467,20.5734137 54.3166943,18.9560527 55.5262023,17.5636363 L55.5262789,17.5639371 Z M40.7951162,52.0012526 C28.3208079,62.3282236 8.82886326,65.0403574 2.70886126,61.3330919 C1.41954934,60.5531135 0.913273353,59.5931794 1.16015472,58.3857743 C2.76868226,50.4938361 16.7219165,40.1022296 21.3307518,36.6695053 C22.3881216,35.8820394 24.3757496,33.4372153 27.1240047,30.0574793 C29.0068661,27.7376386 31.1142,25.110299 33.4559658,22.4381625 L33.4534721,22.4356622 C35.5907484,20.0233478 38.7379591,18.7584106 41.9478,19.0234164 C42.6461161,19.8883811 43.1198959,20.9107749 43.329429,22.0031798 C43.3344171,22.0531764 43.3468863,22.103173 43.3643436,22.1506705 L43.3643436,22.1981674 L43.3643436,22.1956671 C43.3842945,22.2356644 43.4092329,22.2706636 43.4366651,22.3031605 L43.476567,22.3431578 L43.5838043,22.415652 L43.6361755,22.415652 C43.6835592,22.4231517 43.7284479,22.4231517 43.7758323,22.415652 C45.9954024,22.6681339 47.9057164,24.1080158 48.7635765,26.1753939 C48.7810337,26.2153911 48.8034784,26.2503903 48.8309118,26.2828873 L48.9032333,26.3503834 L48.9755548,26.3903807 L49.1301765,26.3903807 C50.2948028,26.55787 51.43951,26.8553472 52.5418254,27.2753119 C54.1778055,32.8948941 55.7589443,39.6821401 40.7959672,52.0012942 L40.7951162,52.0012526 Z M51.7882639,21.9034792 C51.4939854,22.7684438 51.4939854,23.7058514 51.7882639,24.570816 L52.3069893,26.1781937 L52.3069893,26.1756934 C51.5837744,25.945706 50.8480462,25.7632225 50.0999325,25.6307324 L51.3693253,21.631007 C51.4416468,21.3460282 51.2795491,21.0560449 51.0027253,20.9660287 C50.7234117,20.8785339 50.424147,21.0235249 50.3194124,21.2960028 L49.2021577,24.6707471 C48.3592369,23.3733642 47.1322359,22.3784245 45.6907858,21.8234546 L48.4640035,20.6710217 C48.613639,20.6260245 48.738331,20.5210288 48.8081562,20.3810448 C48.8754916,20.2385522 48.882974,20.0760674 48.8231191,19.9310789 C48.7632662,19.7860905 48.6460566,19.6710968 48.4989174,19.6186012 C48.3517781,19.5636046 48.1896804,19.5761036 48.0525134,19.6510988 L44.3017298,21.2035042 C44.0722904,20.4235257 43.7281377,19.6836086 43.2767285,19.0111427 L44.7605704,18.9586465 L44.7605704,18.9561462 C46.7082964,18.8586553 48.6085871,18.3261862 50.3269248,17.3962533 C55.686236,14.1839938 56.9378804,5.47707166 56.9781016,5.13725499 C57.3696387,3.1373923 56.6065155,2.24497358 56.5316977,2.15749159 C56.1251957,1.67002426 56.0927762,1.38506462 56.1326782,1.29003115 L56.1326782,1.29253145 C56.2648526,1.15003884 56.4568799,1.08004684 56.6514036,1.10504353 C57.1776114,1.10504353 57.5891314,1.7725177 57.596601,1.7725177 L57.5941073,1.7725177 C57.6489728,1.8700086 57.7337642,1.95000311 57.833519,1.99750065 C58.3597268,2.32247674 58.6989126,2.8749444 58.751264,3.49237401 C59.4570497,7.02461149 56.6688927,14.5917719 54.713697,16.8239387 L54.7161907,16.8239387 C53.4218991,18.3113245 52.42933,20.0361981 51.7884089,21.9035899 L51.7882639,21.9034792 Z"></path>
        </g>
    </g>
</svg>