<?xml version="1.0" encoding="UTF-8"?>
<svg width="60px" height="54px" viewBox="0 0 60 54" version="1.1" xmlns="http://www.w3.org/2000/svg" xmlns:xlink="http://www.w3.org/1999/xlink">
    <!-- Generator: Sketch 48.2 (47327) - http://www.bohemiancoding.com/sketch -->
    <title>Tomato Icon</title>
    <desc>Created with Sketch.</desc>
    <defs></defs>
    <g id="Tomato-Icon" stroke="none" stroke-width="1" fill="none" fill-rule="evenodd" transform="translate(0.000000, -7.000000)">
        <g>
            <rect id="Container" x="0" y="0" width="60" height="64"></rect>
            <path d="M17.260274,25.9041096 C16.7919165,25.9041096 16.4383562,25.5505493 16.4383562,25.0821918 C16.4383562,24.6138343 16.9067137,24.260274 17.260274,24.260274 C17.7286315,24.260274 18.0821918,24.6138343 18.0821918,25.0821918 C18.0821918,25.5551336 17.7286315,25.9041096 17.260274,25.9041096 Z" id="Shape" fill="#67BF4D" fill-rule="nonzero"></path>
            <path d="M21.7500088,17.9904978 L19.7821092,23.8277498 L25.9717613,25.0766592 L19.7821092,26.3255687 L21.7500088,32.1628206 L17.6712329,27.4387501 L13.592457,32.1628206 L15.5603566,26.3255687 L9.37070444,25.0766592 L15.5603566,23.8277498 L13.592457,17.9904978 L17.6712329,22.7145684 L21.7500088,17.9904978 Z M21.7500088,16.1822731 C21.7500088,16.1822731 21.6070884,16.1822731 21.7500088,16.1822731 C21.3267358,16.1822731 21.0463833,16.3234503 20.7660308,16.4592062 C20.6231104,16.6003834 20.4856783,16.6003834 20.3427579,16.7361392 L17.6712329,19.7932178 L14.9997079,16.7361392 C14.5764349,16.318029 14.153162,16.0410959 13.592457,16.0410959 C13.3121045,16.0410959 12.8888316,16.1822731 12.6084791,16.318029 C11.7619332,16.7361392 11.4815807,17.7081156 11.7619332,18.5443918 L13.0262637,22.4377465 L8.94748782,23.273967 C8.10094199,23.4151442 7.39726027,24.2459434 7.39726027,25.0821918 C7.39726027,25.9184401 8.1008857,26.7491837 8.94748782,26.8904165 L13.0262637,27.7266371 L11.7619332,31.6199918 C11.4815807,32.4562123 11.7619332,33.4282165 12.6084791,33.8463546 C12.8888316,33.9875318 13.1691841,34.1232877 13.592457,34.1232877 C14.153162,34.1232877 14.7193553,33.8463546 14.9997079,33.4282443 L17.6712329,30.3711657 L20.3427579,33.4282443 C20.7660308,33.8463546 21.1893037,34.1232877 21.7500088,34.1232877 C22.0303613,34.1232877 22.4536342,33.9821105 22.7339867,33.8463546 C23.5805325,33.4282443 23.860885,32.4562679 23.5805325,31.6199918 L22.3162021,27.7266371 L26.3949779,26.8904165 C27.2415238,26.7492393 27.9452055,25.9184401 27.9452055,25.0821918 C27.9452055,24.2459434 27.2415801,23.4151998 26.3949779,23.273967 L22.3162021,22.4377465 L23.5805325,18.6856246 C23.7234529,18.4086915 23.7234529,18.2675143 23.7234529,17.9905812 C23.5805325,17.0131835 22.8769071,16.1823565 21.750065,16.1823565 L21.7500088,16.1822731 Z" id="Shape" fill="#67BF4D" fill-rule="nonzero"></path>
            <path d="M54.8924175,29.850158 C54.8924175,29.7103392 55.0324835,29.7103392 55.0324835,29.5758896 C55.3072368,28.6132656 54.7577301,27.6506966 53.9280914,27.3709489 C53.7880253,27.3709489 53.3785846,27.2311301 52.9637653,26.9568616 C49.1010546,25.5801504 46.6174894,24.6175538 45.1037393,24.2034391 L45.9333781,21.5898904 C46.0734441,21.0413536 46.0734441,20.3529979 45.6586247,19.9389383 C45.2438053,19.5248786 44.6942986,19.1107638 44.1393581,19.1107638 L39.8618004,19.1107638 C39.3122937,19.1107638 38.7574083,19.3850323 38.3425338,19.9389383 C37.9277144,20.3530255 37.9277144,21.0413811 38.0677804,21.5898904 L38.8974192,24.0690721 C38.0677804,24.3433405 37.1034267,24.6176089 36.1391282,24.8972465 C36.1391282,14.9860267 28.0043765,7 18.0695641,7 C8.14081995,7 0,15.1203938 0,25.0376711 C0,34.9488908 8.13475171,43.0753421 18.0695641,43.0753421 C19.9981611,43.0753421 22.0668794,42.8010737 23.8608718,42.1127181 L23.8608718,42.3869865 C23.8608718,52.2982063 31.9956235,60.4246575 41.9304359,60.4246575 C51.8591801,60.4246575 60,52.3042638 60,42.3869865 C59.9946117,37.6976326 58.0606456,33.1587532 54.8928864,29.851342 L54.8924175,29.850158 Z M39.7218172,20.9015348 L43.9993748,20.9015348 L42.6202293,25.3059095 C43.7246214,25.4457283 50.6203764,28.059332 52.8236992,28.7476877 L44.1339794,26.8224946 L48.9609886,35.7711179 L42.0652612,28.059332 L36.2739535,34.6686475 L39.9965429,26.8224946 L33.1008155,27.7851187 C34.7546868,27.2365818 40.1366641,25.305937 41.3756884,25.17157 L39.7218172,20.9015348 Z M17.9299394,41.2782383 C8.96549378,41.2782383 1.65464358,33.9805672 1.65464358,25.0316686 C1.65464358,16.08277 8.96521795,8.7850989 17.9299394,8.7850989 C26.8946609,8.7850989 34.2052352,16.08277 34.2052352,25.0316686 L34.2052352,25.5802054 C32.9661558,25.9942926 31.9963958,26.4083799 31.9963958,26.4083799 C31.3068231,26.6826483 30.7573164,27.3710039 30.7573164,28.1992059 C26.8946057,31.0925023 24.4110405,35.496877 23.861589,40.3153664 C22.0675965,40.8639033 19.9988783,41.2779905 17.9301601,41.2779905 L17.9299394,41.2782383 Z M41.9243125,58.6275537 C32.9598669,58.6275537 25.6490167,51.3298826 25.6490167,42.380984 C25.6490167,37.4226207 27.9924607,32.7440051 31.8551713,29.7163417 C32.1299247,29.8561605 32.4046781,29.9906101 32.8194974,29.9906101 L33.0942508,29.9906101 L36.6822357,29.4420733 L34.4733963,34.1206889 C34.0585769,34.9488633 34.3333303,35.9115149 35.162969,36.4599967 C35.4377224,36.7342651 35.8525418,36.7342651 36.1272951,36.7342651 C36.6768019,36.7342651 37.2316872,36.4599967 37.5064406,36.0459094 L41.9186028,30.9531791 L47.4351848,37.1483798 C47.8500041,37.562467 48.2648235,37.8367355 48.8143302,37.8367355 C49.2291496,37.8367355 49.503903,37.6969167 49.9187224,37.562467 C50.7483611,37.0139302 50.8830485,36.0458819 50.4682291,35.2231592 L47.5698169,29.856188 L52.8116731,30.9586309 L53.2264925,30.9586309 L53.3665585,30.9586309 C56.3995752,33.9862943 58.1935677,38.1164281 58.1935677,42.5208028 C58.0588858,51.3295522 50.888372,58.626948 41.9237884,58.626948 L41.9243125,58.6275537 Z" id="Shape" fill="#67BF4D" fill-rule="nonzero"></path>
            <path d="M36.8935491,53.0273449 C34.2774404,53.0273449 32.0547945,50.9323651 32.0547945,48.1885904 C32.0547945,47.6674092 32.4482311,47.2739726 32.9694123,47.2739726 C33.4905934,47.2739726 33.88403,47.6674092 33.88403,48.1885904 C33.88403,49.8901074 35.1920844,51.1981618 36.8936014,51.1981618 C37.4147826,51.1981618 37.8082192,51.5915983 37.8082192,52.1127795 C37.8082192,52.6339607 37.4147826,53.0273973 36.8936014,53.0273973 L36.8935491,53.0273449 Z" id="Shape" fill="#67BF4D" fill-rule="nonzero"></path>
        </g>
    </g>
</svg>